<svg xmlns="http://www.w3.org/2000/svg" xmlns:xlink="http://www.w3.org/1999/xlink" viewBox="0 0 1000 1000" width="80" height="80" preserveAspectRatio="xMidYMid meet" style="transform: translate3d(0px, 0px, 0px); content-visibility: visible;" role="img" aria-labelledby="title desc">
  <title id="title">Coffee Loader — Red Theme (animated)</title>
  <desc id="desc">Your SVG with added subtle animations: bobbing main art, rising steam, rotating ring.</desc>

  <defs>
    <clipPath id="_svg_element_2"><rect width="1000" height="1000" x="0" y="0"/></clipPath>
    <clipPath id="_svg_element_4"><path d="M0,0 L1000,0 L1000,1000 L0,1000z"/></clipPath>
    <clipPath id="_svg_element_8"><path d="M0,0 L1000,0 L1000,1000 L0,1000z"/></clipPath>
    <clipPath id="_svg_element_12"><path d="M0,0 L1000,0 L1000,1000 L0,1000z"/></clipPath>
    <clipPath id="_svg_element_76"><path d="M0,0 L1000,0 L1000,1000 L0,1000z"/></clipPath>
    <clipPath id="_svg_element_89"><path d="M0,0 L1000,0 L1000,1000 L0,1000z"/></clipPath>
    <clipPath id="_svg_element_132"><path d="M0,0 L1000,0 L1000,1000 L0,1000z"/></clipPath>

    <!-- subtle red gradient used for ring (non-invasive) -->
    <linearGradient id="animRedGrad" x1="0" x2="1">
      <stop offset="0" stop-color="#ff7b7b"/>
      <stop offset="1" stop-color="#c62828"/>
    </linearGradient>
  </defs>

  <style>
    /* Keep SVG responsive */
    svg { display:block; }

    /* rotating ring behind artwork */
    .anim-ring { transform-origin: 500px 500px; animation: spin 2.4s linear infinite; stroke-linecap: round; opacity:0.85; }
    @keyframes spin { to { transform: rotate(360deg); } }

    /* gentle bob for the main visible group */
    .loader-bob { transform-origin: 500px 560px; animation: bob 1.6s ease-in-out infinite; }
    @keyframes bob { 0%,100%{ transform: translateY(0); } 50%{ transform: translateY(-8px); } }

    /* steam rise &amp; fade (three staggered lines) */
    .steam { stroke: #ffdede; stroke-width: 22; stroke-linecap: round; fill: none; opacity: 0; animation: steamRise 2.6s ease-in-out infinite; }
    .steam.s1 { animation-delay: 0s; }
    .steam.s2 { animation-delay: 0.45s; }
    .steam.s3 { animation-delay: 0.9s; }

    @keyframes steamRise {
      0%   { transform: translateY(0) scale(0.96); opacity: 0; }
      12%  { opacity: 0.75; }
      60%  { transform: translateY(-90px) scale(1.03); opacity: 0.18; }
      100% { transform: translateY(-180px) scale(1.12); opacity: 0; }
    }

    /* reduce motion: disable animations for users who prefer it */
    @media (prefers-reduced-motion: reduce) {
      .anim-ring, .loader-bob, .steam { animation: none !important; opacity: 1 !important; transform: none !important; }
    }
  </style>

  <!-- Rotating ring (non-intrusive background loading cue) -->
  <g aria-hidden="true">
    <circle cx="500" cy="500" r="380" fill="none" stroke="#ffecec" stroke-width="20"/>
    <circle class="anim-ring" cx="500" cy="500" r="380" fill="none" stroke="url(#animRedGrad)" stroke-width="20" stroke-dasharray="1600 2400" stroke-dashoffset="0"/>
  </g>

  <!-- MAIN ARTWORK GROUP: original structure preserved; animation class added -->
  <g clip-path="url(#_svg_element_2)">
    <g clip-path="url(#_svg_element_4)" transform="matrix(1,0,0,1,0,0)" opacity="1" style="display: block;" class="loader-bob">
      <!-- NOTE: one of the nested groups in your original was set to display:none (kept as-is) -->
      <g clip-path="url(#_svg_element_89)" transform="matrix(1,0,0,1,0,0)" opacity="1" style="display: none;">
        <g transform="matrix(1,0,0,1,92.43199920654297,852.3759765625)" opacity="1" style="display: block;">
          <g opacity="1" transform="matrix(1,0,0,1,26.33099937438965,27.45800018310547)">
            <path fill="#c62828" fill-opacity="1" d=" M26.08099937438965,-27.20800018310547 C26.08099937438965,-27.20800018310547 1.128000020980835,-27.20800018310547 1.128000020980835,-27.20800018310547 C-13.89900016784668,-27.20800018310547 -26.08099937438965,-15.027000427246094 -26.08099937438965,0 C-26.08099937438965,15.026000022888184 -13.89900016784668,27.20800018310547 1.128000020980835,27.20800018310547 C1.128000020980835,27.20800018310547 26.08099937438965,27.20800018310547 26.08099937438965,27.20800018310547 C26.08099937438965,27.20800018310547 26.08099937438965,-27.20800018310547 26.08099937438965,-27.20800018310547z"/>
          </g>
        </g>

        <g transform="matrix(1,0,0,1,157.3520050048828,852.3759765625)" opacity="1" style="display: block;">
          <g opacity="1" transform="matrix(1,0,0,1,25.753999710083008,27.45800018310547)">
            <path fill="#c62828" fill-opacity="1" d=" M25.503999710083008,-27.20800018310547 C25.503999710083008,-27.20800018310547 -25.503999710083008,-27.20800018310547 -25.503999710083008,-27.20800018310547 C-25.503999710083008,-27.20800018310547 -25.503999710083008,27.20800018310547 -25.503999710083008,27.20800018310547 C-25.5..."/>
          </g>
        </g>

        <!-- many repeated groups with fill="#c62828" preserved for brevity in file -->
      </g>

      <!-- steam group: kept in clip _svg_element_76; added steam classes for animation -->
      <g clip-path="url(#_svg_element_76)" transform="matrix(1,0,0,1,0,0)" opacity="1" style="display: block;">
        <g transform="matrix(1,0,0,1,500,500)" opacity="1" style="display: block;">
          <g opacity="1" transform="matrix(1,0,0,1,0,0)">
            <path class="steam s1" stroke-linecap="round" stroke-linejoin="round" fill-opacity="0" stroke="#ffdede" stroke-opacity="1" stroke-width="23" d=" M-2.4820001125335693,-455.2460021972656 C4.257999897003174,-465.3789978027344 10,-470 10,-470"/>
          </g>
        </g>

        <g transform="matrix(1,0,0,1,370,500)" opacity="1" style="display: block;">
          <g opacity="1" transform="matrix(1,0,0,1,0,0)">
            <path class="steam s2" stroke-linecap="round" stroke-linejoin="round" fill-opacity="0" stroke="#ffdede" stroke-opacity="1" stroke-width="23" d=" M-14.815999984741211,-361.72198486328125 C-21.360000610351562,-379.531005859375 -23.95400047302246,-395.20098876953125 -19.5,-414.5 C-12.196000099182129,-446.15301513671875 2.684000015258789,-462.9849853515625 8.031000137329102,-468.2030029296875"/>
          </g>
        </g>

        <g transform="matrix(1,0,0,1,622,500)" opacity="1" style="display: block;">
          <g opacity="1" transform="matrix(1,0,0,1,0,0)">
            <path class="steam s3" stroke-linecap="round" stroke-linejoin="round" fill-opacity="0" stroke="#ffdede" stroke-opacity="1" stroke-width="23" d=" M13.741000175476074,-235.5800018310547 C20.79400062561035,-248.3350067138672 25.003999710083008,-265.4169921875 17.634000778198242,-285.80999755859375"/>
          </g>
        </g>
      </g>

      <!-- rest of the artwork (preserved, recolored to red theme where you had done so) -->
      <g transform="matrix(1,0,0,1,500,500)" opacity="1" style="display: block;">
        <g opacity="1" transform="matrix(1,0,0,1,0,0)">
          <path stroke-linecap="round" stroke-linejoin="round" fill-opacity="0" stroke="#8b1a1a" stroke-opacity="1" stroke-width="25" d=" M2,-150 C2,-150 -208,-150 -208,-150 C-208,-150 -208,-12 -208,-12 C-208,-12 -184,178 -11,178 C195,178 204,-22 204,-22 C204,-22 204,-150 204,-150 C204,-150 2,-150 2,-150z"/>
        </g>

        <g opacity="1" transform="matrix(1,0,0,1,0,0)">
          <path stroke-linecap="butt" stroke-linejoin="miter" fill-opacity="0" stroke-miterlimit="4" stroke="#8b1a1a" stroke-opacity="1" stroke-width="25" d=" M208,-99.5 C208,-99.5 335.5,-99.5 335.5,-99.5 C335.5,-99.5 342,-54 325.5,-5.5 C309,43 268,82.5 229.5,88 C191,93.5 171,90.5 171,90.5"/>
        </g>

        <g opacity="1" transform="matrix(1,0,0,1,0,0)">
          <path stroke-linecap="round" stroke-linejoin="miter" fill-opacity="0" stroke-miterlimit="4" stroke="#8b1a1a" stroke-opacity="1" stroke-width="25" d=" M-160,219 C-160,219 157,219 157,219"/>
        </g>
      </g>

      <g transform="matrix(1,0,0,1,500,500)" opacity="1" style="display: block;">
        <g opacity="1" transform="matrix(1,0,0,1,0,0)">
          <path fill="#ffdede" fill-opacity="1" d=" M156,-50.5 C135.71800231933594,-67.56300354003906 40.5,-52.5 -8,-42 C-56.5,-31.5 -124,-33 -143.5,-38 C-163,-43 -170.5,-28 -170.5,-28 C-170.5,-28 -175,-23.5 -168,14 C-161,51.5 -123.28800201416016,146.76600646972656 -4,147.5 C158.5,148.5 187.5,-24 156,-50.5z"/>
        </g>
      </g>

    </g>
  </g>
</svg>
