<svg width="108" height="89" viewBox="0 0 108 89" fill="none" xmlns="http://www.w3.org/2000/svg">
<path d="M0.457031 76.3867C1.33203 76.418 2.01562 76.4336 2.50781 76.4336C5.85938 76.4141 7.71484 76.3984 8.07422 76.3867C8.125 76.7773 8.22461 77.1484 8.37305 77.5C8.52148 77.8477 8.71094 78.2188 8.94141 78.6133C8.91016 78.6797 8.8418 78.7324 8.73633 78.7715C8.5957 78.5059 8.42578 78.2695 8.22656 78.0625C8.02734 77.8555 7.77539 77.6602 7.4707 77.4766C7.16992 77.293 6.79297 77.1426 6.33984 77.0254C5.89062 76.9082 5.37695 76.8301 4.79883 76.791H3.18164C3.13086 78.4434 3.10547 79.6875 3.10547 80.5234H4.77539C4.88867 80.5234 4.99414 80.5156 5.0918 80.5C5.19336 80.4805 5.28711 80.4492 5.37305 80.4062C5.45898 80.3594 5.53516 80.3164 5.60156 80.2773C5.67188 80.2344 5.74219 80.1719 5.8125 80.0898C5.88281 80.0039 5.94141 79.9336 5.98828 79.8789C6.03516 79.8203 6.0918 79.7324 6.1582 79.6152C6.22461 79.498 6.27539 79.4062 6.31055 79.3398C6.3457 79.2734 6.39844 79.1699 6.46875 79.0293C6.54297 78.8887 6.59961 78.7832 6.63867 78.7129C6.75977 78.7598 6.83398 78.8105 6.86133 78.8652C6.69727 79.1543 6.55859 79.4746 6.44531 79.8262C6.33203 80.1777 6.27539 80.4707 6.27539 80.7051C6.27539 81.2598 6.4707 81.8711 6.86133 82.5391C6.83008 82.6016 6.75586 82.6543 6.63867 82.6973C6.5957 82.6191 6.53516 82.5078 6.45703 82.3633C6.38281 82.2148 6.32422 82.1016 6.28125 82.0234C6.23828 81.9453 6.17969 81.8457 6.10547 81.7246C6.03125 81.6035 5.96484 81.5098 5.90625 81.4434C5.85156 81.377 5.7793 81.3027 5.68945 81.2207C5.60352 81.1387 5.51758 81.0781 5.43164 81.0391C5.3457 80.9961 5.24609 80.9609 5.13281 80.9336C5.02344 80.9023 4.9043 80.8867 4.77539 80.8867H3.10547C3.10547 81.5078 3.12695 82.7598 3.16992 84.6426H5.03906C5.61719 84.6035 6.13086 84.5254 6.58008 84.4082C7.0332 84.291 7.41016 84.1406 7.71094 83.957C8.01562 83.7734 8.26758 83.5781 8.4668 83.3711C8.66602 83.1641 8.83594 82.9277 8.97656 82.6621C9.08203 82.7012 9.15039 82.752 9.18164 82.8145C9.16211 82.8535 9.11133 82.9473 9.0293 83.0957C8.94727 83.2441 8.89258 83.3457 8.86523 83.4004C8.83789 83.4512 8.79102 83.543 8.72461 83.6758C8.66211 83.8047 8.61523 83.9102 8.58398 83.9922C8.55273 84.0703 8.51562 84.1699 8.47266 84.291C8.43359 84.4121 8.40039 84.5312 8.37305 84.6484C8.34961 84.7617 8.33008 84.8789 8.31445 85H3.16992C2.11133 85 1.20312 85.0117 0.445312 85.0352C0.429688 84.9883 0.421875 84.9492 0.421875 84.918C0.421875 84.8906 0.429688 84.8379 0.445312 84.7598C0.625 84.7441 0.769531 84.7285 0.878906 84.7129C0.992188 84.6934 1.12891 84.6641 1.28906 84.625C1.45312 84.5859 1.57812 84.5312 1.66406 84.4609C1.75 84.3867 1.79492 84.2988 1.79883 84.1973C1.8457 82.9746 1.86914 81.7422 1.86914 80.5C1.86914 79.2344 1.84961 78.1426 1.81055 77.2246C1.80664 77.123 1.76172 77.0371 1.67578 76.9668C1.58984 76.8926 1.46484 76.8359 1.30078 76.7969C1.14062 76.7578 1.00391 76.7305 0.890625 76.7148C0.78125 76.6953 0.636719 76.6777 0.457031 76.6621C0.441406 76.5918 0.433594 76.543 0.433594 76.5156C0.433594 76.4922 0.441406 76.4492 0.457031 76.3867ZM9.20508 79.8027C9.7207 79.8262 10.2402 79.8379 10.7637 79.8379C11.2051 79.8379 11.6777 79.8262 12.1816 79.8027C12.1973 79.8652 12.2051 79.9141 12.2051 79.9492C12.2051 79.9727 12.1973 80.0156 12.1816 80.0781C12.0723 80.0859 11.9824 80.0957 11.9121 80.1074C11.8457 80.1152 11.7617 80.1309 11.6602 80.1543C11.5586 80.1777 11.4824 80.2129 11.4316 80.2598C11.3809 80.3066 11.3555 80.3633 11.3555 80.4297C11.3555 80.4648 11.3711 80.5371 11.4023 80.6465L12.4688 83.6055H12.5039L13.752 80.6465C13.7949 80.541 13.8164 80.457 13.8164 80.3945C13.8164 80.2148 13.5918 80.1094 13.1426 80.0781C13.127 80.0156 13.1191 79.9727 13.1191 79.9492C13.1191 79.9141 13.127 79.8652 13.1426 79.8027C13.5996 79.8262 13.8828 79.8379 13.9922 79.8379C14.3203 79.8379 14.7363 79.8262 15.2402 79.8027C15.2559 79.8496 15.2637 79.8906 15.2637 79.9258C15.2637 79.9492 15.2559 80 15.2402 80.0781C14.7754 80.0977 14.459 80.2871 14.291 80.6465L12.2871 85.1699H12L10.2246 80.6465C10.1855 80.5449 10.127 80.459 10.0488 80.3887C9.97461 80.3145 9.87695 80.2578 9.75586 80.2188C9.63867 80.1758 9.54688 80.1465 9.48047 80.1309C9.41797 80.1152 9.32617 80.0977 9.20508 80.0781C9.18945 80.0469 9.18164 80.0039 9.18164 79.9492C9.18164 79.8906 9.18945 79.8418 9.20508 79.8027ZM20.1914 81.8945H16.998C16.9824 82.1289 16.9746 82.3359 16.9746 82.5156C16.9863 83.0977 17.1562 83.5645 17.4844 83.916C17.8125 84.2637 18.252 84.4375 18.8027 84.4375C18.9512 84.4375 19.0898 84.4219 19.2188 84.3906C19.3477 84.3555 19.4531 84.3164 19.5352 84.2734C19.6211 84.2305 19.709 84.168 19.7988 84.0859C19.8887 84.0039 19.9531 83.9395 19.9922 83.8926C20.0352 83.8418 20.0918 83.7676 20.1621 83.6699C20.2324 83.5684 20.2793 83.5039 20.3027 83.4766C20.3965 83.4961 20.4727 83.5391 20.5312 83.6055C20.3359 84.1289 20.0332 84.5215 19.623 84.7832C19.2129 85.041 18.7676 85.1699 18.2871 85.1699C18.0488 85.1699 17.8164 85.1387 17.5898 85.0762C17.3672 85.0176 17.1504 84.9199 16.9395 84.7832C16.7285 84.6465 16.5449 84.4785 16.3887 84.2793C16.2324 84.0762 16.1074 83.8242 16.0137 83.5234C15.9199 83.2188 15.873 82.8828 15.873 82.5156C15.873 81.6914 16.125 81.0117 16.6289 80.4766C17.1328 79.9414 17.752 79.6738 18.4863 79.6738C18.8105 79.6738 19.0918 79.7207 19.3301 79.8145C19.5723 79.9043 19.7598 80.0273 19.8926 80.1836C20.0293 80.3398 20.1289 80.5117 20.1914 80.6992C20.2578 80.8828 20.291 81.0801 20.291 81.291C20.291 81.4863 20.2578 81.6875 20.1914 81.8945ZM18.3457 80.0547C18.0762 80.0547 17.8203 80.1738 17.5781 80.4121C17.3398 80.6504 17.168 81.0117 17.0625 81.4961H19.1719C19.2109 81.3477 19.2305 81.2188 19.2305 81.1094C19.2305 80.8047 19.1602 80.5527 19.0195 80.3535C18.8789 80.1543 18.6543 80.0547 18.3457 80.0547ZM21.457 80.1777C22.2148 80.0996 22.875 79.9395 23.4375 79.6973C23.5352 79.7363 23.6035 79.7871 23.6426 79.8496V80.8574C23.7871 80.584 24.002 80.3184 24.2871 80.0605C24.5762 79.8027 24.877 79.6738 25.1895 79.6738C25.4238 79.6738 25.6133 79.7441 25.7578 79.8848C25.9062 80.0215 25.9805 80.2109 25.9805 80.4531C25.9805 80.6836 25.9121 80.8633 25.7754 80.9922C25.6387 81.1211 25.4668 81.1855 25.2598 81.1855C25.0684 81.1855 24.9102 81.125 24.7852 81.0039C24.6641 80.8789 24.5977 80.7148 24.5859 80.5117C24.4219 80.582 24.2344 80.7383 24.0234 80.9805C23.8164 81.2227 23.6895 81.4629 23.6426 81.7012C23.6426 82.5723 23.6582 83.4043 23.6895 84.1973C23.6934 84.2988 23.7305 84.3867 23.8008 84.4609C23.8711 84.5312 23.9746 84.5859 24.1113 84.625C24.248 84.6641 24.3613 84.6934 24.4512 84.7129C24.541 84.7285 24.6582 84.7441 24.8027 84.7598C24.8262 84.8066 24.8379 84.8555 24.8379 84.9062C24.8379 84.9453 24.8262 84.9883 24.8027 85.0352C24.2168 85.0117 23.6367 85 23.0625 85C22.5859 85 22.0898 85.0117 21.5742 85.0352C21.5586 84.9727 21.5508 84.9297 21.5508 84.9062C21.5508 84.8867 21.5586 84.8379 21.5742 84.7598C21.7031 84.7441 21.8086 84.7285 21.8906 84.7129C21.9727 84.6934 22.0742 84.6641 22.1953 84.625C22.3164 84.5859 22.4082 84.5312 22.4707 84.4609C22.5332 84.3867 22.5664 84.2988 22.5703 84.1973C22.5859 83.8105 22.5938 83.3418 22.5938 82.791C22.5938 82.6074 22.5918 82.2949 22.5879 81.8535C22.584 81.4121 22.582 81.0254 22.582 80.6934C22.3594 80.5566 21.9844 80.4766 21.457 80.4531C21.4414 80.3906 21.4336 80.3418 21.4336 80.3066C21.4336 80.2832 21.4414 80.2402 21.457 80.1777ZM25.8867 79.8027C26.4023 79.8262 26.9238 79.8379 27.4512 79.8379C27.9316 79.8379 28.4238 79.8262 28.9277 79.8027C28.9434 79.8652 28.9512 79.9141 28.9512 79.9492C28.9512 79.9727 28.9434 80.0156 28.9277 80.0781C28.8105 80.0859 28.7168 80.0957 28.6465 80.1074C28.5762 80.1152 28.4844 80.1309 28.3711 80.1543C28.2617 80.1777 28.1777 80.2129 28.1191 80.2598C28.0645 80.3066 28.0371 80.3633 28.0371 80.4297C28.0371 80.4648 28.0527 80.5371 28.084 80.6465L29.2734 83.6055H29.3086L30.4395 80.6465C30.4785 80.5488 30.498 80.4648 30.498 80.3945C30.498 80.2148 30.2734 80.1094 29.8242 80.0781C29.8086 80.0156 29.8008 79.9727 29.8008 79.9492C29.8008 79.9141 29.8086 79.8652 29.8242 79.8027C30.2812 79.8262 30.5664 79.8379 30.6797 79.8379C31.0078 79.8379 31.4238 79.8262 31.9277 79.8027C31.9434 79.8496 31.9512 79.8906 31.9512 79.9258C31.9512 79.9492 31.9434 80 31.9277 80.0781C31.4395 80.0977 31.123 80.2871 30.9785 80.6465L29.168 84.9766H29.1797L28.5293 86.6816C28.2871 87.3145 28.0605 87.7422 27.8496 87.9648C27.6426 88.1875 27.377 88.2988 27.0527 88.2988C26.791 88.2988 26.5723 88.2207 26.3965 88.0645C26.2246 87.9082 26.1387 87.7031 26.1387 87.4492C26.1387 87.2188 26.2031 87.0371 26.332 86.9043C26.4609 86.7715 26.6211 86.7051 26.8125 86.7051C26.9883 86.7051 27.123 86.7578 27.2168 86.8633C27.3145 86.9688 27.3633 87.0879 27.3633 87.2207C27.3633 87.4082 27.2793 87.5566 27.1113 87.666C27.1309 87.752 27.1953 87.7949 27.3047 87.7949C27.4297 87.7949 27.5469 87.7227 27.6562 87.5781C27.7656 87.4375 27.9082 87.1348 28.084 86.6699L28.7344 85L26.9062 80.6465C26.8633 80.5488 26.8027 80.4648 26.7246 80.3945C26.6465 80.3203 26.5508 80.2637 26.4375 80.2246C26.3281 80.1816 26.2363 80.1523 26.1621 80.1367C26.0879 80.1172 25.9961 80.0977 25.8867 80.0781C25.8711 80.0469 25.8633 80.0039 25.8633 79.9492C25.8633 79.8906 25.8711 79.8418 25.8867 79.8027ZM35.1445 76.5742C35.8828 76.5039 36.543 76.3438 37.125 76.0938C37.2266 76.1367 37.293 76.1895 37.3242 76.252C37.3242 80.6777 37.3418 83.3262 37.377 84.1973C37.3809 84.2988 37.4102 84.3867 37.4648 84.4609C37.5234 84.5312 37.6055 84.5859 37.7109 84.625C37.8164 84.6641 37.9043 84.6934 37.9746 84.7129C38.0449 84.7285 38.1367 84.7441 38.25 84.7598C38.2656 84.8223 38.2734 84.8711 38.2734 84.9062C38.2734 84.9297 38.2656 84.9727 38.25 85.0352C38.1133 85.0273 37.9727 85.0195 37.8281 85.0117C37.6875 85.0039 37.5762 84.998 37.4941 84.9941C37.4121 84.9902 37.3359 84.9883 37.2656 84.9883C37.207 84.9883 37.1406 84.9902 37.0664 84.9941C36.9922 84.998 36.8906 85.0039 36.7617 85.0117C36.6328 85.0195 36.5059 85.0273 36.3809 85.0352C36.3613 85.0273 36.3438 85.0176 36.3281 85.0059C36.3164 84.998 36.3066 84.9922 36.2988 84.9883C36.2949 84.9805 36.2891 84.9707 36.2812 84.959C36.2734 84.9434 36.2676 84.9336 36.2637 84.9297C36.2598 84.9258 36.2539 84.9141 36.2461 84.8945C36.2422 84.8711 36.2383 84.8574 36.2344 84.8535C36.25 84.7598 36.2578 84.5488 36.2578 84.2207C35.6133 84.8535 35.0176 85.1699 34.4707 85.1699C33.8691 85.1699 33.3789 84.9434 33 84.4902C32.6211 84.0371 32.4316 83.4199 32.4316 82.6387C32.4316 82.3691 32.4629 82.0996 32.5254 81.8301C32.5879 81.5605 32.6914 81.2949 32.8359 81.0332C32.9805 80.7715 33.1582 80.541 33.3691 80.3418C33.5801 80.1426 33.8477 79.9824 34.1719 79.8613C34.4961 79.7363 34.8555 79.6738 35.25 79.6738C35.543 79.6738 35.8867 79.7363 36.2812 79.8613C36.2734 79.1191 36.2695 78.1953 36.2695 77.0898C36.0469 76.9609 35.6719 76.8809 35.1445 76.8496C35.1289 76.7871 35.1211 76.7402 35.1211 76.709C35.1211 76.6816 35.1289 76.6367 35.1445 76.5742ZM35.0332 84.4023C35.4238 84.4023 35.8359 84.1934 36.2695 83.7754C36.2773 83.3926 36.2812 82.668 36.2812 81.6016V80.752C36.0117 80.2871 35.5996 80.0547 35.0449 80.0547C34.9277 80.0547 34.8105 80.0723 34.6934 80.1074C34.5762 80.1426 34.4512 80.2129 34.3184 80.3184C34.1855 80.4238 34.0684 80.5586 33.9668 80.7227C33.8691 80.8867 33.7871 81.1152 33.7207 81.4082C33.6543 81.6973 33.6211 82.0312 33.6211 82.4102C33.6211 82.9883 33.7402 83.4648 33.9785 83.8398C34.2207 84.2148 34.5723 84.4023 35.0332 84.4023ZM39.6914 81.1504C39.6914 80.7207 39.8867 80.3672 40.2773 80.0898C40.6719 79.8125 41.1367 79.6738 41.6719 79.6738C42.3281 79.6738 42.7891 79.8047 43.0547 80.0664C43.3242 80.3281 43.459 80.7695 43.459 81.3906V83.8223C43.459 84.041 43.5391 84.1504 43.6992 84.1504C43.8281 84.1504 43.9922 83.9941 44.1914 83.6816C44.332 83.6934 44.4277 83.7559 44.4785 83.8691C44.4512 83.9082 44.4043 83.9785 44.3379 84.0801C44.2715 84.1816 44.2227 84.2539 44.1914 84.2969C44.1602 84.3398 44.1113 84.4062 44.0449 84.4961C43.9785 84.582 43.9238 84.6465 43.8809 84.6895C43.8418 84.7324 43.7871 84.7832 43.7168 84.8418C43.6504 84.9004 43.5879 84.9453 43.5293 84.9766C43.4746 85.0039 43.4102 85.0273 43.3359 85.0469C43.2617 85.0703 43.1875 85.082 43.1133 85.082C42.918 85.082 42.7559 85.0117 42.627 84.8711C42.502 84.7305 42.4277 84.5137 42.4043 84.2207C42.4004 84.2246 42.3398 84.2812 42.2227 84.3906C42.1055 84.5 42.0234 84.5742 41.9766 84.6133C41.9336 84.6484 41.8496 84.7129 41.7246 84.8066C41.6035 84.8965 41.5 84.9609 41.4141 85C41.3281 85.0391 41.2207 85.0762 41.0918 85.1113C40.9629 85.1504 40.8359 85.1699 40.7109 85.1699C40.5117 85.1699 40.334 85.1426 40.1777 85.0879C40.0254 85.0332 39.9062 84.9668 39.8203 84.8887C39.7344 84.8105 39.6641 84.7207 39.6094 84.6191C39.5547 84.5137 39.5176 84.418 39.498 84.332C39.4824 84.2461 39.4746 84.1602 39.4746 84.0742C39.4746 83.8125 39.5176 83.5918 39.6035 83.4121C39.6934 83.2324 39.8574 83.0645 40.0957 82.9082C40.3379 82.752 40.6348 82.6133 40.9863 82.4922C41.3379 82.3711 41.8105 82.2344 42.4043 82.082V81.2676C42.4043 80.873 42.3164 80.5781 42.1406 80.3828C41.9688 80.1875 41.7363 80.0898 41.4434 80.0898C41.1816 80.0898 40.9609 80.1426 40.7812 80.248C40.6055 80.3496 40.498 80.4688 40.459 80.6055C40.8418 80.6641 41.0332 80.873 41.0332 81.2324C41.0332 81.3965 40.9746 81.541 40.8574 81.666C40.7402 81.791 40.5762 81.8535 40.3652 81.8535C40.1895 81.8535 40.0332 81.793 39.8965 81.6719C39.7598 81.5469 39.6914 81.373 39.6914 81.1504ZM42.4043 83.6816V82.457C42.0449 82.5391 41.748 82.6289 41.5137 82.7266C41.2793 82.8203 41.0996 82.9238 40.9746 83.0371C40.8535 83.1504 40.7695 83.2676 40.7227 83.3887C40.6758 83.5059 40.6523 83.6426 40.6523 83.7988C40.6523 83.9941 40.709 84.1484 40.8223 84.2617C40.9395 84.3711 41.082 84.4258 41.25 84.4258C41.6406 84.4258 42.0254 84.1777 42.4043 83.6816ZM44.3789 79.8027C44.8945 79.8262 45.416 79.8379 45.9434 79.8379C46.4238 79.8379 46.916 79.8262 47.4199 79.8027C47.4355 79.8652 47.4434 79.9141 47.4434 79.9492C47.4434 79.9727 47.4355 80.0156 47.4199 80.0781C47.3027 80.0859 47.209 80.0957 47.1387 80.1074C47.0684 80.1152 46.9766 80.1309 46.8633 80.1543C46.7539 80.1777 46.6699 80.2129 46.6113 80.2598C46.5566 80.3066 46.5293 80.3633 46.5293 80.4297C46.5293 80.4648 46.5449 80.5371 46.5762 80.6465L47.7656 83.6055H47.8008L48.9316 80.6465C48.9707 80.5488 48.9902 80.4648 48.9902 80.3945C48.9902 80.2148 48.7656 80.1094 48.3164 80.0781C48.3008 80.0156 48.293 79.9727 48.293 79.9492C48.293 79.9141 48.3008 79.8652 48.3164 79.8027C48.7734 79.8262 49.0586 79.8379 49.1719 79.8379C49.5 79.8379 49.916 79.8262 50.4199 79.8027C50.4355 79.8496 50.4434 79.8906 50.4434 79.9258C50.4434 79.9492 50.4355 80 50.4199 80.0781C49.9316 80.0977 49.6152 80.2871 49.4707 80.6465L47.6602 84.9766H47.6719L47.0215 86.6816C46.7793 87.3145 46.5527 87.7422 46.3418 87.9648C46.1348 88.1875 45.8691 88.2988 45.5449 88.2988C45.2832 88.2988 45.0645 88.2207 44.8887 88.0645C44.7168 87.9082 44.6309 87.7031 44.6309 87.4492C44.6309 87.2188 44.6953 87.0371 44.8242 86.9043C44.9531 86.7715 45.1133 86.7051 45.3047 86.7051C45.4805 86.7051 45.6152 86.7578 45.709 86.8633C45.8066 86.9688 45.8555 87.0879 45.8555 87.2207C45.8555 87.4082 45.7715 87.5566 45.6035 87.666C45.623 87.752 45.6875 87.7949 45.7969 87.7949C45.9219 87.7949 46.0391 87.7227 46.1484 87.5781C46.2578 87.4375 46.4004 87.1348 46.5762 86.6699L47.2266 85L45.3984 80.6465C45.3555 80.5488 45.2949 80.4648 45.2168 80.3945C45.1387 80.3203 45.043 80.2637 44.9297 80.2246C44.8203 80.1816 44.7285 80.1523 44.6543 80.1367C44.5801 80.1172 44.4883 80.0977 44.3789 80.0781C44.3633 80.0469 44.3555 80.0039 44.3555 79.9492C44.3555 79.8906 44.3633 79.8418 44.3789 79.8027ZM53.7773 76.3984C54.4336 76.4219 55.1172 76.4336 55.8281 76.4336C56.1641 76.4336 56.4844 76.4258 56.7891 76.4102C57.0938 76.3945 57.25 76.3867 57.2578 76.3867C57.4688 76.3867 57.6621 76.3926 57.8379 76.4043C58.0176 76.4121 58.2188 76.4316 58.4414 76.4629C58.668 76.4941 58.8691 76.5371 59.0449 76.5918C59.2207 76.6465 59.3965 76.7227 59.5723 76.8203C59.752 76.918 59.9004 77.0332 60.0176 77.166C60.1387 77.2988 60.2363 77.4629 60.3105 77.6582C60.3848 77.8535 60.4219 78.0723 60.4219 78.3145C60.4219 79.0293 59.9941 79.5664 59.1387 79.9258V79.9727C59.7793 80.0898 60.3145 80.3555 60.7441 80.7695C61.1777 81.1836 61.3945 81.7129 61.3945 82.3574C61.3945 82.7012 61.332 83.0117 61.207 83.2891C61.0859 83.5625 60.9297 83.7891 60.7383 83.9688C60.5469 84.1484 60.3066 84.3047 60.0176 84.4375C59.7285 84.5703 59.4473 84.6719 59.1738 84.7422C58.9004 84.8125 58.5859 84.8691 58.2305 84.9121C57.8789 84.9512 57.5781 84.9766 57.3281 84.9883C57.0781 84.9961 56.7988 85 56.4902 85C55.4316 85 54.5234 85.0117 53.7656 85.0352C53.75 84.9883 53.7422 84.9492 53.7422 84.918C53.7422 84.8906 53.75 84.8379 53.7656 84.7598C53.8828 84.748 53.9766 84.7383 54.0469 84.7305C54.1172 84.7227 54.2129 84.709 54.334 84.6895C54.459 84.6699 54.5586 84.6484 54.6328 84.625C54.7109 84.5977 54.791 84.5645 54.873 84.5254C54.9551 84.4863 55.0156 84.4395 55.0547 84.3848C55.0977 84.3301 55.1191 84.2676 55.1191 84.1973C55.166 82.9746 55.1895 81.7422 55.1895 80.5C55.1895 79.2344 55.1699 78.1426 55.1309 77.2246C55.127 77.123 55.082 77.0371 54.9961 76.9668C54.9141 76.8965 54.7891 76.8418 54.6211 76.8027C54.4531 76.7637 54.3184 76.7383 54.2168 76.7266C54.1152 76.7109 53.9688 76.6934 53.7773 76.6738C53.7617 76.6035 53.7539 76.5547 53.7539 76.5273C53.7539 76.5039 53.7617 76.4609 53.7773 76.3984ZM56.4258 80.5V80.9336L56.4902 84.6016C56.752 84.6016 56.9844 84.5977 57.1875 84.5898C57.3906 84.5781 57.6133 84.5547 57.8555 84.5195C58.0977 84.4805 58.3086 84.4297 58.4883 84.3672C58.668 84.3047 58.8477 84.2188 59.0273 84.1094C59.207 83.9961 59.3535 83.8633 59.4668 83.7109C59.5801 83.5586 59.6719 83.3711 59.7422 83.1484C59.8125 82.9219 59.8477 82.668 59.8477 82.3867C59.8477 82.1133 59.8027 81.8691 59.7129 81.6543C59.623 81.4355 59.4961 81.2539 59.332 81.1094C59.1719 80.9609 58.9746 80.8379 58.7402 80.7402C58.5098 80.6426 58.2578 80.5723 57.9844 80.5293C57.7148 80.4863 57.4199 80.4648 57.0996 80.4648C56.877 80.4648 56.6523 80.4766 56.4258 80.5ZM56.502 76.8027L56.4258 80.1426C58.0195 80.1426 58.8164 79.5332 58.8164 78.3145C58.8164 77.7832 58.6504 77.3926 58.3184 77.1426C57.9902 76.8926 57.5527 76.7676 57.0059 76.7676C56.8848 76.7676 56.7168 76.7793 56.502 76.8027ZM67.043 81.8945H63.8496C63.834 82.1289 63.8262 82.3359 63.8262 82.5156C63.8379 83.0977 64.0078 83.5645 64.3359 83.916C64.6641 84.2637 65.1035 84.4375 65.6543 84.4375C65.8027 84.4375 65.9414 84.4219 66.0703 84.3906C66.1992 84.3555 66.3047 84.3164 66.3867 84.2734C66.4727 84.2305 66.5605 84.168 66.6504 84.0859C66.7402 84.0039 66.8047 83.9395 66.8438 83.8926C66.8867 83.8418 66.9434 83.7676 67.0137 83.6699C67.084 83.5684 67.1309 83.5039 67.1543 83.4766C67.248 83.4961 67.3242 83.5391 67.3828 83.6055C67.1875 84.1289 66.8848 84.5215 66.4746 84.7832C66.0645 85.041 65.6191 85.1699 65.1387 85.1699C64.9004 85.1699 64.668 85.1387 64.4414 85.0762C64.2188 85.0176 64.002 84.9199 63.791 84.7832C63.5801 84.6465 63.3965 84.4785 63.2402 84.2793C63.084 84.0762 62.959 83.8242 62.8652 83.5234C62.7715 83.2188 62.7246 82.8828 62.7246 82.5156C62.7246 81.6914 62.9766 81.0117 63.4805 80.4766C63.9844 79.9414 64.6035 79.6738 65.3379 79.6738C65.6621 79.6738 65.9434 79.7207 66.1816 79.8145C66.4238 79.9043 66.6113 80.0273 66.7441 80.1836C66.8809 80.3398 66.9805 80.5117 67.043 80.6992C67.1094 80.8828 67.1426 81.0801 67.1426 81.291C67.1426 81.4863 67.1094 81.6875 67.043 81.8945ZM65.1973 80.0547C64.9277 80.0547 64.6719 80.1738 64.4297 80.4121C64.1914 80.6504 64.0195 81.0117 63.9141 81.4961H66.0234C66.0625 81.3477 66.082 81.2188 66.082 81.1094C66.082 80.8047 66.0117 80.5527 65.8711 80.3535C65.7305 80.1543 65.5059 80.0547 65.1973 80.0547ZM67.6465 79.8027C68.1621 79.8262 68.6816 79.8379 69.2051 79.8379C69.6465 79.8379 70.1191 79.8262 70.623 79.8027C70.6387 79.8652 70.6465 79.9141 70.6465 79.9492C70.6465 79.9727 70.6387 80.0156 70.623 80.0781C70.5137 80.0859 70.4238 80.0957 70.3535 80.1074C70.2871 80.1152 70.2031 80.1309 70.1016 80.1543C70 80.1777 69.9238 80.2129 69.873 80.2598C69.8223 80.3066 69.7969 80.3633 69.7969 80.4297C69.7969 80.4648 69.8125 80.5371 69.8438 80.6465L70.9102 83.6055H70.9453L72.1934 80.6465C72.2363 80.541 72.2578 80.457 72.2578 80.3945C72.2578 80.2148 72.0332 80.1094 71.584 80.0781C71.5684 80.0156 71.5605 79.9727 71.5605 79.9492C71.5605 79.9141 71.5684 79.8652 71.584 79.8027C72.041 79.8262 72.3242 79.8379 72.4336 79.8379C72.7617 79.8379 73.1777 79.8262 73.6816 79.8027C73.6973 79.8496 73.7051 79.8906 73.7051 79.9258C73.7051 79.9492 73.6973 80 73.6816 80.0781C73.2168 80.0977 72.9004 80.2871 72.7324 80.6465L70.7285 85.1699H70.4414L68.666 80.6465C68.627 80.5449 68.5684 80.459 68.4902 80.3887C68.416 80.3145 68.3184 80.2578 68.1973 80.2188C68.0801 80.1758 67.9883 80.1465 67.9219 80.1309C67.8594 80.1152 67.7676 80.0977 67.6465 80.0781C67.6309 80.0469 67.623 80.0039 67.623 79.9492C67.623 79.8906 67.6309 79.8418 67.6465 79.8027ZM78.6328 81.8945H75.4395C75.4238 82.1289 75.416 82.3359 75.416 82.5156C75.4277 83.0977 75.5977 83.5645 75.9258 83.916C76.2539 84.2637 76.6934 84.4375 77.2441 84.4375C77.3926 84.4375 77.5312 84.4219 77.6602 84.3906C77.7891 84.3555 77.8945 84.3164 77.9766 84.2734C78.0625 84.2305 78.1504 84.168 78.2402 84.0859C78.3301 84.0039 78.3945 83.9395 78.4336 83.8926C78.4766 83.8418 78.5332 83.7676 78.6035 83.6699C78.6738 83.5684 78.7207 83.5039 78.7441 83.4766C78.8379 83.4961 78.9141 83.5391 78.9727 83.6055C78.7773 84.1289 78.4746 84.5215 78.0645 84.7832C77.6543 85.041 77.209 85.1699 76.7285 85.1699C76.4902 85.1699 76.2578 85.1387 76.0312 85.0762C75.8086 85.0176 75.5918 84.9199 75.3809 84.7832C75.1699 84.6465 74.9863 84.4785 74.8301 84.2793C74.6738 84.0762 74.5488 83.8242 74.4551 83.5234C74.3613 83.2188 74.3145 82.8828 74.3145 82.5156C74.3145 81.6914 74.5664 81.0117 75.0703 80.4766C75.5742 79.9414 76.1934 79.6738 76.9277 79.6738C77.252 79.6738 77.5332 79.7207 77.7715 79.8145C78.0137 79.9043 78.2012 80.0273 78.334 80.1836C78.4707 80.3398 78.5703 80.5117 78.6328 80.6992C78.6992 80.8828 78.7324 81.0801 78.7324 81.291C78.7324 81.4863 78.6992 81.6875 78.6328 81.8945ZM76.7871 80.0547C76.5176 80.0547 76.2617 80.1738 76.0195 80.4121C75.7812 80.6504 75.6094 81.0117 75.5039 81.4961H77.6133C77.6523 81.3477 77.6719 81.2188 77.6719 81.1094C77.6719 80.8047 77.6016 80.5527 77.4609 80.3535C77.3203 80.1543 77.0957 80.0547 76.7871 80.0547ZM79.8984 80.1777C80.6562 80.0996 81.3164 79.9395 81.8789 79.6973C81.9766 79.7363 82.0449 79.7871 82.084 79.8496V80.8574C82.2285 80.584 82.4434 80.3184 82.7285 80.0605C83.0176 79.8027 83.3184 79.6738 83.6309 79.6738C83.8652 79.6738 84.0547 79.7441 84.1992 79.8848C84.3477 80.0215 84.4219 80.2109 84.4219 80.4531C84.4219 80.6836 84.3535 80.8633 84.2168 80.9922C84.0801 81.1211 83.9082 81.1855 83.7012 81.1855C83.5098 81.1855 83.3516 81.125 83.2266 81.0039C83.1055 80.8789 83.0391 80.7148 83.0273 80.5117C82.8633 80.582 82.6758 80.7383 82.4648 80.9805C82.2578 81.2227 82.1309 81.4629 82.084 81.7012C82.084 82.5723 82.0996 83.4043 82.1309 84.1973C82.1348 84.2988 82.1719 84.3867 82.2422 84.4609C82.3125 84.5312 82.416 84.5859 82.5527 84.625C82.6895 84.6641 82.8027 84.6934 82.8926 84.7129C82.9824 84.7285 83.0996 84.7441 83.2441 84.7598C83.2676 84.8066 83.2793 84.8555 83.2793 84.9062C83.2793 84.9453 83.2676 84.9883 83.2441 85.0352C82.6582 85.0117 82.0781 85 81.5039 85C81.0273 85 80.5312 85.0117 80.0156 85.0352C80 84.9727 79.9922 84.9297 79.9922 84.9062C79.9922 84.8867 80 84.8379 80.0156 84.7598C80.1445 84.7441 80.25 84.7285 80.332 84.7129C80.4141 84.6934 80.5156 84.6641 80.6367 84.625C80.7578 84.5859 80.8496 84.5312 80.9121 84.4609C80.9746 84.3867 81.0078 84.2988 81.0117 84.1973C81.0273 83.8105 81.0352 83.3418 81.0352 82.791C81.0352 82.6074 81.0332 82.2949 81.0293 81.8535C81.0254 81.4121 81.0234 81.0254 81.0234 80.6934C80.8008 80.5566 80.4258 80.4766 79.8984 80.4531C79.8828 80.3906 79.875 80.3418 79.875 80.3066C79.875 80.2832 79.8828 80.2402 79.8984 80.1777ZM85.7227 81.1504C85.7227 80.7207 85.918 80.3672 86.3086 80.0898C86.7031 79.8125 87.168 79.6738 87.7031 79.6738C88.3594 79.6738 88.8203 79.8047 89.0859 80.0664C89.3555 80.3281 89.4902 80.7695 89.4902 81.3906V83.8223C89.4902 84.041 89.5703 84.1504 89.7305 84.1504C89.8594 84.1504 90.0234 83.9941 90.2227 83.6816C90.3633 83.6934 90.459 83.7559 90.5098 83.8691C90.4824 83.9082 90.4355 83.9785 90.3691 84.0801C90.3027 84.1816 90.2539 84.2539 90.2227 84.2969C90.1914 84.3398 90.1426 84.4062 90.0762 84.4961C90.0098 84.582 89.9551 84.6465 89.9121 84.6895C89.873 84.7324 89.8184 84.7832 89.748 84.8418C89.6816 84.9004 89.6191 84.9453 89.5605 84.9766C89.5059 85.0039 89.4414 85.0273 89.3672 85.0469C89.293 85.0703 89.2188 85.082 89.1445 85.082C88.9492 85.082 88.7871 85.0117 88.6582 84.8711C88.5332 84.7305 88.459 84.5137 88.4355 84.2207C88.4316 84.2246 88.3711 84.2812 88.2539 84.3906C88.1367 84.5 88.0547 84.5742 88.0078 84.6133C87.9648 84.6484 87.8809 84.7129 87.7559 84.8066C87.6348 84.8965 87.5312 84.9609 87.4453 85C87.3594 85.0391 87.252 85.0762 87.123 85.1113C86.9941 85.1504 86.8672 85.1699 86.7422 85.1699C86.543 85.1699 86.3652 85.1426 86.209 85.0879C86.0566 85.0332 85.9375 84.9668 85.8516 84.8887C85.7656 84.8105 85.6953 84.7207 85.6406 84.6191C85.5859 84.5137 85.5488 84.418 85.5293 84.332C85.5137 84.2461 85.5059 84.1602 85.5059 84.0742C85.5059 83.8125 85.5488 83.5918 85.6348 83.4121C85.7246 83.2324 85.8887 83.0645 86.127 82.9082C86.3691 82.752 86.666 82.6133 87.0176 82.4922C87.3691 82.3711 87.8418 82.2344 88.4355 82.082V81.2676C88.4355 80.873 88.3477 80.5781 88.1719 80.3828C88 80.1875 87.7676 80.0898 87.4746 80.0898C87.2129 80.0898 86.9922 80.1426 86.8125 80.248C86.6367 80.3496 86.5293 80.4688 86.4902 80.6055C86.873 80.6641 87.0645 80.873 87.0645 81.2324C87.0645 81.3965 87.0059 81.541 86.8887 81.666C86.7715 81.791 86.6074 81.8535 86.3965 81.8535C86.2207 81.8535 86.0645 81.793 85.9277 81.6719C85.791 81.5469 85.7227 81.373 85.7227 81.1504ZM88.4355 83.6816V82.457C88.0762 82.5391 87.7793 82.6289 87.5449 82.7266C87.3105 82.8203 87.1309 82.9238 87.0059 83.0371C86.8848 83.1504 86.8008 83.2676 86.7539 83.3887C86.707 83.5059 86.6836 83.6426 86.6836 83.7988C86.6836 83.9941 86.7402 84.1484 86.8535 84.2617C86.9707 84.3711 87.1133 84.4258 87.2812 84.4258C87.6719 84.4258 88.0566 84.1777 88.4355 83.6816ZM95.7539 81.5078C95.7539 82.125 95.5547 82.6191 95.1562 82.9902C94.7578 83.3613 94.2734 83.5469 93.7031 83.5469C93.4336 83.5469 93.1816 83.5273 92.9473 83.4883C92.7129 83.6367 92.5957 83.8203 92.5957 84.0391C92.5957 84.2148 92.7051 84.3438 92.9238 84.4258C93.1465 84.5039 93.5254 84.543 94.0605 84.543C94.1465 84.543 94.3086 84.5391 94.5469 84.5312C94.7852 84.5234 94.9746 84.5195 95.1152 84.5195C96.2051 84.5195 96.75 84.9668 96.75 85.8613C96.75 86.1152 96.6738 86.3828 96.5215 86.6641C96.373 86.9453 96.168 87.207 95.9062 87.4492C95.6484 87.6953 95.3223 87.8984 94.9277 88.0586C94.5371 88.2188 94.125 88.2988 93.6914 88.2988C93.0078 88.2988 92.4902 88.1719 92.1387 87.918C91.7871 87.668 91.6113 87.3555 91.6113 86.9805C91.6113 86.7188 91.707 86.457 91.8984 86.1953C92.0938 85.9336 92.3828 85.6992 92.7656 85.4922C92.0117 85.3828 91.6348 85.0898 91.6348 84.6133C91.6348 84.3867 91.7188 84.1738 91.8867 83.9746C92.0586 83.7715 92.291 83.5605 92.584 83.3418C92.1855 83.1191 91.9102 82.8633 91.7578 82.5742C91.6055 82.2852 91.5293 81.957 91.5293 81.5898C91.5293 81.3633 91.582 81.1367 91.6875 80.9102C91.7969 80.6797 91.9434 80.4746 92.127 80.2949C92.3105 80.1113 92.5352 79.9629 92.8008 79.8496C93.0703 79.7324 93.3535 79.6738 93.6504 79.6738C93.9238 79.6738 94.1484 79.6953 94.3242 79.7383C94.5 79.7773 94.7188 79.8477 94.9805 79.9492C95.2422 80.0508 95.4883 80.1348 95.7188 80.2012C95.7383 80.0488 95.7988 79.9199 95.9004 79.8145C96.002 79.7051 96.1328 79.6504 96.293 79.6504C96.4375 79.6504 96.5664 79.7109 96.6797 79.832C96.7969 79.9531 96.8555 80.0918 96.8555 80.248C96.8555 80.4082 96.8047 80.5469 96.7031 80.6641C96.6055 80.7773 96.4805 80.834 96.3281 80.834C96.2383 80.834 96.1484 80.8184 96.0586 80.7871C95.9688 80.7559 95.8945 80.7246 95.8359 80.6934C95.7812 80.6582 95.6992 80.6035 95.5898 80.5293C95.4805 80.4512 95.3945 80.3926 95.332 80.3535L95.3086 80.3828C95.4531 80.5117 95.5625 80.6777 95.6367 80.8809C95.7148 81.0801 95.7539 81.2891 95.7539 81.5078ZM92.6953 86.5586C92.6953 86.7148 92.7188 86.8633 92.7656 87.0039C92.8125 87.1445 92.8867 87.2773 92.9883 87.4023C93.0898 87.5273 93.2324 87.625 93.416 87.6953C93.6035 87.7695 93.8223 87.8066 94.0723 87.8066C94.3926 87.8066 94.6758 87.7559 94.9219 87.6543C95.1719 87.5566 95.3613 87.4336 95.4902 87.2852C95.6191 87.1367 95.7148 86.9922 95.7773 86.8516C95.8398 86.7148 95.8711 86.5898 95.8711 86.4766C95.8711 86.3203 95.8574 86.1875 95.8301 86.0781C95.8027 85.9727 95.75 85.8691 95.6719 85.7676C95.5977 85.6699 95.4805 85.5957 95.3203 85.5449C95.1602 85.4941 94.957 85.4688 94.7109 85.4688C94.5781 85.4688 94.3301 85.4766 93.9668 85.4922C93.6035 85.5078 93.3711 85.5156 93.2695 85.5156C93.0898 85.6406 92.9492 85.7949 92.8477 85.9785C92.7461 86.1621 92.6953 86.3555 92.6953 86.5586ZM92.7188 81.6016C92.7188 82.6445 93.0293 83.166 93.6504 83.166C93.9473 83.166 94.1738 83.0371 94.3301 82.7793C94.4863 82.5215 94.5645 82.0938 94.5645 81.4961C94.5645 81.2227 94.5332 80.9863 94.4707 80.7871C94.4082 80.584 94.3262 80.4336 94.2246 80.3359C94.127 80.2344 94.0273 80.1621 93.9258 80.1191C93.8281 80.0762 93.7285 80.0547 93.627 80.0547C93.3652 80.0547 93.1484 80.1777 92.9766 80.4238C92.8047 80.6699 92.7188 81.0625 92.7188 81.6016ZM102.023 81.8945H98.8301C98.8145 82.1289 98.8066 82.3359 98.8066 82.5156C98.8184 83.0977 98.9883 83.5645 99.3164 83.916C99.6445 84.2637 100.084 84.4375 100.635 84.4375C100.783 84.4375 100.922 84.4219 101.051 84.3906C101.18 84.3555 101.285 84.3164 101.367 84.2734C101.453 84.2305 101.541 84.168 101.631 84.0859C101.721 84.0039 101.785 83.9395 101.824 83.8926C101.867 83.8418 101.924 83.7676 101.994 83.6699C102.064 83.5684 102.111 83.5039 102.135 83.4766C102.229 83.4961 102.305 83.5391 102.363 83.6055C102.168 84.1289 101.865 84.5215 101.455 84.7832C101.045 85.041 100.6 85.1699 100.119 85.1699C99.8809 85.1699 99.6484 85.1387 99.4219 85.0762C99.1992 85.0176 98.9824 84.9199 98.7715 84.7832C98.5605 84.6465 98.377 84.4785 98.2207 84.2793C98.0645 84.0762 97.9395 83.8242 97.8457 83.5234C97.752 83.2188 97.7051 82.8828 97.7051 82.5156C97.7051 81.6914 97.957 81.0117 98.4609 80.4766C98.9648 79.9414 99.584 79.6738 100.318 79.6738C100.643 79.6738 100.924 79.7207 101.162 79.8145C101.404 79.9043 101.592 80.0273 101.725 80.1836C101.861 80.3398 101.961 80.5117 102.023 80.6992C102.09 80.8828 102.123 81.0801 102.123 81.291C102.123 81.4863 102.09 81.6875 102.023 81.8945ZM100.178 80.0547C99.9082 80.0547 99.6523 80.1738 99.4102 80.4121C99.1719 80.6504 99 81.0117 98.8945 81.4961H101.004C101.043 81.3477 101.062 81.2188 101.062 81.1094C101.062 80.8047 100.992 80.5527 100.852 80.3535C100.711 80.1543 100.486 80.0547 100.178 80.0547ZM105.557 85.1699C105.365 85.1699 105.191 85.1543 105.035 85.123C104.883 85.0918 104.764 85.0586 104.678 85.0234C104.596 84.9883 104.484 84.9355 104.344 84.8652C104.191 84.8652 103.967 84.9219 103.67 85.0352C103.619 85.0039 103.584 84.9688 103.564 84.9297C103.584 84.8672 103.607 84.6543 103.635 84.291C103.666 83.9277 103.682 83.6035 103.682 83.3184C103.732 83.2949 103.824 83.2832 103.957 83.2832C104.027 83.5098 104.1 83.7031 104.174 83.8633C104.252 84.0234 104.35 84.1797 104.467 84.332C104.588 84.4805 104.732 84.5938 104.9 84.6719C105.072 84.7461 105.268 84.7832 105.486 84.7832C105.826 84.7832 106.092 84.6953 106.283 84.5195C106.479 84.3438 106.576 84.1445 106.576 83.9219C106.576 83.7539 106.549 83.6113 106.494 83.4941C106.439 83.377 106.316 83.2539 106.125 83.125C105.938 82.9922 105.668 82.8613 105.316 82.7324C105.098 82.6543 104.912 82.582 104.76 82.5156C104.607 82.4492 104.449 82.3672 104.285 82.2695C104.125 82.1719 103.996 82.0723 103.898 81.9707C103.801 81.8652 103.721 81.7402 103.658 81.5957C103.596 81.4512 103.564 81.293 103.564 81.1211C103.564 80.9961 103.578 80.873 103.605 80.752C103.637 80.627 103.693 80.498 103.775 80.3652C103.861 80.2324 103.967 80.1172 104.092 80.0195C104.221 79.918 104.391 79.8359 104.602 79.7734C104.816 79.707 105.059 79.6738 105.328 79.6738C105.438 79.6738 105.533 79.6797 105.615 79.6914C105.701 79.7031 105.803 79.7246 105.92 79.7559C106.041 79.7832 106.107 79.7988 106.119 79.8027C106.205 79.7832 106.293 79.7578 106.383 79.7266C106.477 79.6953 106.529 79.6777 106.541 79.6738H106.693C106.787 80.2363 106.908 80.7148 107.057 81.1094C107.01 81.1602 106.934 81.1855 106.828 81.1855C106.504 80.7949 106.227 80.5098 105.996 80.3301C105.77 80.1465 105.512 80.0547 105.223 80.0547C104.996 80.0547 104.797 80.1055 104.625 80.207C104.453 80.3086 104.367 80.4629 104.367 80.6699C104.367 80.9316 104.471 81.1367 104.678 81.2852C104.889 81.4336 105.277 81.623 105.844 81.8535C106.105 81.959 106.311 82.0469 106.459 82.1172C106.611 82.1875 106.764 82.2715 106.916 82.3691C107.068 82.4668 107.18 82.5684 107.25 82.6738C107.324 82.7754 107.385 82.8984 107.432 83.043C107.479 83.1875 107.502 83.3555 107.502 83.5469C107.502 83.9609 107.311 84.3359 106.928 84.6719C106.549 85.0039 106.092 85.1699 105.557 85.1699Z" fill="#F01E2C"/>
<path d="M38.5 42C45.4036 42 51 35.9558 51 28.5C51 21.0442 45.4036 15 38.5 15C31.5964 15 26 21.0442 26 28.5C26 35.9558 31.5964 42 38.5 42Z" fill="#F01E2C"/>
<path d="M51 28H36V31H51V28Z" fill="white"/>
<path d="M36 28H38V30.4V34H36V31V28Z" fill="white"/>
<path d="M40 25C41.6569 25 43 23.6569 43 22C43 20.3431 41.6569 19 40 19C38.3431 19 37 20.3431 37 22C37 23.6569 38.3431 25 40 25Z" fill="white"/>
<path d="M87 28C87 36.8366 79.8366 44 71 44C62.1634 44 55 36.8366 55 28C55 19.1634 62.1634 12 71 12C79.8366 12 87 19.1634 87 28Z" fill="#F01E2C"/>
<path d="M55.1172 0H58.9067V30C58.9067 30 55.5909 30 55.1172 30C54.6435 30 55.1172 0 55.1172 0Z" fill="#F01E2C"/>
<path d="M71 39C77.0751 39 82 34.0751 82 28C82 21.9249 77.0751 17 71 17C64.9249 17 60 21.9249 60 28C60 34.0751 64.9249 39 71 39Z" fill="white"/>
<path d="M58 0H46V3H58V0Z" fill="#F01E2C"/>
<path fill-rule="evenodd" clip-rule="evenodd" d="M20.3269 52.6035C20.3303 52.6069 20.3342 52.6107 20.3384 52.615L20.3269 52.6035ZM22.1428 55.5895C22.1175 55.56 22.0973 55.5361 22.0824 55.5184C22.0973 55.5361 22.119 55.5617 22.1428 55.5895ZM19.69 53.3803C19.6718 53.3624 19.6563 53.3469 19.6433 53.3338L19.69 53.3803Z" fill="white"/>
<path fill-rule="evenodd" clip-rule="evenodd" d="M92.6815 48.1822C91.6347 49.1048 90.5851 49.9734 89.5401 50.7964C79.9241 59.266 71.0276 64.0192 62.6366 65.4741C54.247 66.9289 46.3966 65.0839 40.0572 62.7677C33.7208 60.4526 28.596 57.0769 25.0573 54.2832C23.2873 52.8859 21.9116 51.6317 20.977 50.7257C20.5097 50.2729 20.152 49.9064 19.9107 49.6524C19.7902 49.5256 19.6983 49.4262 19.6363 49.3586C19.6101 49.3299 19.5892 49.3067 19.5737 49.2895C19.2536 49.0382 18.9589 48.8012 18.6966 48.5867C18.1516 48.1411 17.7324 47.7803 17.4494 47.5305C17.3081 47.4057 17.1999 47.3083 17.1271 47.2418C17.1026 47.2194 17.082 47.2001 17.0655 47.1845C17.0579 47.1774 17.0511 47.171 17.0452 47.1655C17.2626 47.1388 17.1652 47.1421 17.0869 47.1448C17.054 47.146 17.023 47.1457 17.023 47.1457C17.023 47.1457 17.0152 47.1376 17.3582 46.7742L17.7011 46.4108L17.7253 46.4326C17.7288 46.4359 17.7328 46.4396 17.7371 46.4437C17.7535 46.4589 17.7754 46.4793 17.8024 46.504C17.8711 46.5667 17.9744 46.6601 18.1111 46.7807C18.3853 47.0228 18.7948 47.375 19.3294 47.8122C20.3992 48.6869 21.9722 49.9017 23.9798 51.2554C27.9968 53.9642 34.4784 56.439 41.4061 58.654C55.2387 63.0772 73.0617 64.129 92.02 47.4308L92.6815 48.1822Z" fill="#F01E2C"/>
<path d="M76.6066 63.2272C77.1241 65.5842 75.2848 67.9912 72.4983 68.6032C69.7118 69.2142 68.3291 65.6722 67.8115 63.3152C67.294 60.9572 68.8037 60.7312 71.5902 60.1197C74.3766 59.5079 76.0891 60.8702 76.6066 63.2272Z" fill="#F01E2C"/>
</svg>
