<?xml version="1.0" encoding="utf-8"?>
<!-- Generator: Adobe Illustrator 27.5.0, SVG Export Plug-In . SVG Version: 6.00 Build 0)  -->
<svg version="1.1" id="Ñëîé_1" xmlns="http://www.w3.org/2000/svg" xmlns:xlink="http://www.w3.org/1999/xlink" x="0px" y="0px"
	 viewBox="0 0 750 750" style="enable-background:new 0 0 750 750;" xml:space="preserve">
<g>
	<g>
		<path style="fill:#FFF3F0;" d="M622.186,468.883h-536.8c-10.639,0-19.263-8.624-19.263-19.263V160.673
			c0-10.639,8.624-19.263,19.263-19.263h536.8c10.639,0,19.263,8.624,19.263,19.263V449.62
			C641.449,460.259,632.825,468.883,622.186,468.883z"/>
		<path style="fill:#FFF3F0;" d="M663.281,581.894H519.449c-10.639,0-19.263-8.624-19.263-19.263v-43.663
			c0-10.639,8.624-19.263,19.263-19.263h143.832c10.639,0,19.263,8.624,19.263,19.263v43.663
			C682.544,573.269,673.919,581.894,663.281,581.894z"/>
	</g>
	<path style="opacity:0.2;fill:#604C53;" d="M559.266,664.083H189.401c-7.798,0-14.12-6.322-14.12-14.12v-0.013
		c0-7.798,6.322-14.12,14.12-14.12h369.866c7.798,0,14.12,6.322,14.12,14.12v0.013C573.386,657.762,567.064,664.083,559.266,664.083
		z"/>
	<g>
		<path style="fill:#FFA897;" d="M522.734,441.586L522.734,441.586c-13.953,8.788-32.389,4.601-41.177-9.353l-45.921-72.911
			c-8.788-13.953-4.601-32.389,9.353-41.177l0,0c13.953-8.788,32.389-4.601,41.177,9.353l45.921,72.911
			C540.874,414.362,536.687,432.798,522.734,441.586z"/>
		<path style="fill:#FF7D7D;" d="M445.169,396.702l62.726-41.376l-28.453-45.177c-6.921-10.989-18.813-17.548-31.813-17.548
			c-7.071,0-13.984,1.999-19.99,5.782c-17.526,11.038-22.803,34.277-11.766,51.804L445.169,396.702z"/>
		<path style="fill:#FF7D7D;" d="M472.167,487.504H278.893V339.178c0-31.916,25.873-57.789,57.789-57.789h77.695
			c31.916,0,57.789,25.873,57.789,57.789V487.504z"/>
		<g>
			<path style="fill:#604C53;" d="M278.732,223.278V123.11c0-21.278,17.249-38.526,38.526-38.526h116.542
				c21.277,0,38.526,17.249,38.526,38.526v98.242"/>
			<path style="fill:#FF9797;" d="M466.067,247.999H284.993c-8.829,0-16.053-7.224-16.053-16.053l0,0
				c0-8.829,7.224-16.053,16.053-16.053h181.074c8.829,0,16.053,7.224,16.053,16.053l0,0
				C482.119,240.775,474.896,247.999,466.067,247.999z"/>
			<path style="fill:#FFA897;" d="M406.351,325.052h-61.642c-31.916,0-57.79-25.873-57.79-57.789v-82.189
				c0-31.916,25.873-57.789,57.79-57.789h61.642c31.916,0,57.789,25.873,57.789,57.789v82.189
				C464.14,299.178,438.267,325.052,406.351,325.052z"/>
			<path style="opacity:0.1;fill:#D42300;" d="M406.351,303.862h-61.642c-31.916,0-57.789-25.873-57.789-57.789v21.189
				c0,31.916,25.873,57.789,57.789,57.789h61.642c31.916,0,57.79-25.873,57.79-57.789v-21.189
				C464.14,277.989,438.267,303.862,406.351,303.862z"/>
			<path style="opacity:0.1;fill:#D42300;" d="M293.742,157.824c19.229,23.369,81.602,42.308,122.622,35.092
				c0,0-18.066-36.642-30.242-49.416c11.866,9.559,45.694,34.985,78.018,42.319v-0.746c0-26.792-18.236-49.318-42.97-55.863h-91.281
				C314.253,133.347,301.218,143.87,293.742,157.824z"/>
			<g>
				<path style="fill:#604C53;" d="M327.613,230.02L327.613,230.02c-3.443,0-6.261-2.817-6.261-6.26v-7.705
					c0-3.443,2.817-6.26,6.261-6.26l0,0c3.443,0,6.26,2.817,6.26,6.26v7.705C333.873,227.203,331.056,230.02,327.613,230.02z"/>
				<path style="fill:#604C53;" d="M423.447,230.02L423.447,230.02c-3.443,0-6.261-2.817-6.261-6.26v-7.705
					c0-3.443,2.817-6.26,6.261-6.26l0,0c3.443,0,6.26,2.817,6.26,6.26v7.705C429.707,227.203,426.89,230.02,423.447,230.02z"/>
			</g>
			<path style="fill:#604C53;" d="M289.227,144.345c10.595,26.544,81.868,50.434,127.137,42.471c0,0-23.116-46.895-34.674-53.089
				c0,0,43.342,37.752,83.795,46.305V123.11H303.674L289.227,144.345z"/>
			<path style="fill:#604C53;" d="M341.943,198.376c-11.999-8.428-24.822-3.515-29.925,0.262c-1.283,0.949-1.553,2.758-0.604,4.041
				c0.947,1.282,2.758,1.553,4.041,0.604c0.115-0.083,11.542-8.343,23.167-0.177c0.569,0.399,1.233,0.565,1.876,0.516
				c0.833-0.063,1.631-0.485,2.149-1.221C343.564,201.095,343.249,199.294,341.943,198.376z"/>
			<path style="fill:#604C53;" d="M408.392,198.376c11.999-8.428,24.822-3.515,29.925,0.262c1.283,0.949,1.553,2.758,0.604,4.041
				c-0.947,1.282-2.758,1.553-4.041,0.604c-0.115-0.083-11.542-8.343-23.167-0.177c-0.569,0.399-1.233,0.565-1.876,0.516
				c-0.833-0.063-1.631-0.485-2.149-1.221C406.77,201.095,407.086,199.294,408.392,198.376z"/>
			<path style="fill:#BA3C43;" d="M383.295,300.652c0,7.802-3.45,8.347-7.705,8.347s-7.705-0.546-7.705-8.347
				c0-7.802,3.45-14.126,7.705-14.126S383.295,292.85,383.295,300.652z"/>
		</g>
		<g>
			<rect x="290.13" y="519.61" style="fill:#FFA897;" width="62.284" height="73.842"/>
			<rect x="337.117" y="519.61" style="fill:#ED9787;" width="15.297" height="73.842"/>
			<rect x="290.13" y="519.61" style="fill:#ED9787;" width="62.284" height="16.695"/>
			<rect x="288.647" y="593.452" style="fill:#CFD8E0;" width="65.25" height="30.821"/>
			<rect x="320.743" y="593.452" style="fill:#BFC8CF;" width="33.154" height="30.821"/>
			<rect x="318.826" y="593.452" style="fill:#ACB4BA;" width="4.892" height="30.821"/>
			<path style="fill:#FFFFFF;" d="M340.535,599.231L340.535,599.231c0-1.351-1.095-2.446-2.446-2.446h-33.634
				c-1.351,0-2.446,1.095-2.446,2.446l0,0c0,1.351,1.095,2.446,2.446,2.446h33.634C339.44,601.677,340.535,600.582,340.535,599.231z
				"/>
			<path style="fill:#E5EFF8;" d="M363.651,648.593h-84.758v-7.933c0-20.354,16.5-36.854,36.854-36.854h11.05
				c20.354,0,36.854,16.5,36.854,36.854V648.593z"/>
		</g>
		<g>
			<rect x="398.646" y="519.61" style="fill:#FFA897;" width="62.284" height="73.842"/>
			<rect x="445.633" y="519.61" style="fill:#ED9787;" width="15.297" height="73.842"/>
			<rect x="398.646" y="519.61" style="fill:#ED9787;" width="62.284" height="16.695"/>
			<rect x="397.163" y="593.452" style="fill:#CFD8E0;" width="65.25" height="30.821"/>
			<rect x="429.259" y="593.452" style="fill:#BFC8CF;" width="33.154" height="30.821"/>
			<rect x="427.341" y="593.452" style="fill:#ACB4BA;" width="4.892" height="30.821"/>
			<path style="fill:#FFFFFF;" d="M449.051,599.231L449.051,599.231c0-1.351-1.095-2.446-2.446-2.446h-33.634
				c-1.351,0-2.446,1.095-2.446,2.446l0,0c0,1.351,1.095,2.446,2.446,2.446h33.634C447.956,601.677,449.051,600.582,449.051,599.231
				z"/>
			<path style="fill:#E5EFF8;" d="M472.167,648.593h-84.758v-7.933c0-20.354,16.5-36.854,36.854-36.854h11.05
				c20.354,0,36.854,16.5,36.854,36.854V648.593z"/>
		</g>
		<path style="fill:#604C53;" d="M278.893,463.746v62.926h86.363v-2.896c0-5.67,4.597-10.267,10.267-10.267h0.013
			c5.67,0,10.267,4.597,10.267,10.267v2.896h86.363v-62.926H278.893z"/>
		<path style="fill:#FFA897;" d="M259.237,505.483h-6.522c-5.098,0-9.268-4.171-9.268-9.268v-1.368c0-5.098,4.171-9.268,9.268-9.268
			h6.522c5.098,0,9.269,4.171,9.269,9.268v1.368C268.506,501.313,264.335,505.483,259.237,505.483z"/>
		<path style="fill:#FFA897;" d="M278.171,505.483h-6.522c-5.098,0-9.268-4.171-9.268-9.268v-1.368c0-5.098,4.171-9.268,9.268-9.268
			h6.522c5.098,0,9.268,4.171,9.268,9.268v1.368C287.439,501.313,283.269,505.483,278.171,505.483z"/>
		<path style="fill:#FFA897;" d="M297.104,505.483h-6.522c-5.098,0-9.268-4.171-9.268-9.268v-1.368c0-5.098,4.171-9.268,9.268-9.268
			h6.522c5.098,0,9.268,4.171,9.268,9.268v1.368C306.373,501.313,302.202,505.483,297.104,505.483z"/>
		<g>
			<path style="fill:#E5EFF8;" d="M428.373,457.967H225.468c-7.447,0-13.484-6.037-13.484-13.484V314.778
				c0-7.447,6.037-13.484,13.484-13.484h202.905c7.447,0,13.484,6.037,13.484,13.484v129.705
				C441.857,451.931,435.82,457.967,428.373,457.967z"/>
			<path style="fill:#DBE4ED;" d="M436.078,492.962H217.762c-3.192,0-5.779-2.587-5.779-5.779v-25.684
				c0-3.192,2.587-5.779,5.779-5.779h218.316c3.192,0,5.779,2.587,5.779,5.779v25.684
				C441.857,490.375,439.27,492.962,436.078,492.962z"/>
			<path style="fill:#C7D1D9;" d="M436.078,487.906H217.762c-3.192,0-5.779-2.587-5.779-5.779v5.057
				c0,3.192,2.587,5.779,5.779,5.779h218.316c3.192,0,5.779-2.587,5.779-5.779v-5.057
				C441.857,485.318,439.27,487.906,436.078,487.906z"/>
			<rect x="220.01" y="310.604" style="fill:#008EB4;" width="213.821" height="138.053"/>
			<rect x="426.768" y="310.604" style="fill:#007FA1;" width="7.063" height="138.053"/>
			<rect x="220.01" y="458.018" style="fill:#C6CED6;" width="213.821" height="1.264"/>
			<rect x="220.01" y="463.074" style="fill:#C6CED6;" width="213.821" height="1.264"/>
			
				<rect x="218.726" y="465.803" transform="matrix(-1.836970e-16 1 -1 -1.836970e-16 693.3478 239.5228)" style="fill:#C6CED6;" width="16.374" height="1.264"/>
			
				<rect x="231.167" y="465.803" transform="matrix(-1.836970e-16 1 -1 -1.836970e-16 705.7886 227.082)" style="fill:#C6CED6;" width="16.374" height="1.264"/>
			
				<rect x="243.607" y="465.803" transform="matrix(-1.836970e-16 1 -1 -1.836970e-16 718.2294 214.6413)" style="fill:#C6CED6;" width="16.374" height="1.264"/>
			
				<rect x="256.048" y="465.803" transform="matrix(-1.836970e-16 1 -1 -1.836970e-16 730.6702 202.2005)" style="fill:#C6CED6;" width="16.374" height="1.264"/>
			
				<rect x="268.489" y="465.803" transform="matrix(-1.836970e-16 1 -1 -1.836970e-16 743.111 189.7596)" style="fill:#C6CED6;" width="16.374" height="1.264"/>
			
				<rect x="280.93" y="465.803" transform="matrix(-1.836970e-16 1 -1 -1.836970e-16 755.5518 177.3188)" style="fill:#C6CED6;" width="16.374" height="1.264"/>
			
				<rect x="293.37" y="465.803" transform="matrix(-1.836970e-16 1 -1 -1.836970e-16 767.9926 164.8781)" style="fill:#C6CED6;" width="16.374" height="1.264"/>
			
				<rect x="305.811" y="465.803" transform="matrix(-1.836970e-16 1 -1 -1.836970e-16 780.4333 152.4373)" style="fill:#C6CED6;" width="16.374" height="1.264"/>
			
				<rect x="318.252" y="465.803" transform="matrix(-1.836970e-16 1 -1 -1.836970e-16 792.8741 139.9965)" style="fill:#C6CED6;" width="16.374" height="1.264"/>
			
				<rect x="330.693" y="465.803" transform="matrix(-1.836970e-16 1 -1 -1.836970e-16 805.3149 127.5557)" style="fill:#C6CED6;" width="16.374" height="1.264"/>
			
				<rect x="343.134" y="465.803" transform="matrix(-1.836970e-16 1 -1 -1.836970e-16 817.7557 115.1149)" style="fill:#C6CED6;" width="16.374" height="1.264"/>
			
				<rect x="355.574" y="465.803" transform="matrix(-1.836970e-16 1 -1 -1.836970e-16 830.1965 102.6741)" style="fill:#C6CED6;" width="16.374" height="1.264"/>
			
				<rect x="368.015" y="465.803" transform="matrix(-1.836970e-16 1 -1 -1.836970e-16 842.6373 90.2334)" style="fill:#C6CED6;" width="16.374" height="1.264"/>
			
				<rect x="380.456" y="465.803" transform="matrix(-1.836970e-16 1 -1 -1.836970e-16 855.0781 77.7925)" style="fill:#C6CED6;" width="16.374" height="1.264"/>
			
				<rect x="392.897" y="465.803" transform="matrix(-1.836970e-16 1 -1 -1.836970e-16 867.5189 65.3518)" style="fill:#C6CED6;" width="16.374" height="1.264"/>
			
				<rect x="405.338" y="465.803" transform="matrix(-1.836970e-16 1 -1 -1.836970e-16 879.9597 52.9109)" style="fill:#C6CED6;" width="16.374" height="1.264"/>
			
				<rect x="417.778" y="465.803" transform="matrix(-1.836970e-16 1 -1 -1.836970e-16 892.4005 40.4701)" style="fill:#C6CED6;" width="16.374" height="1.264"/>
			<rect x="220.01" y="468.131" style="fill:#C6CED6;" width="213.821" height="1.264"/>
			<rect x="220.01" y="473.187" style="fill:#C6CED6;" width="213.821" height="1.264"/>
			<rect x="307.336" y="478.033" style="fill:#C6CED6;" width="39.168" height="7.545"/>
			<g>
				<g>
					<circle style="fill:#FFFFFF;" cx="326.92" cy="379.631" r="52.653"/>
					<polygon style="opacity:0.1;fill:#FFFFFF;" points="249.665,448.657 387.718,310.604 367.101,310.604 229.048,448.657 					"/>
					<polygon style="opacity:0.1;fill:#FFFFFF;" points="220.01,365.825 220.01,439.025 348.431,310.604 275.231,310.604 					"/>
					<g>
						<g>
							<path style="fill:#FF847D;" d="M326.969,396.583c-4.142,0-7.513-3.178-7.513-7.32v-35.735c0-4.238,3.371-7.609,7.513-7.609
								c4.046,0,7.417,3.371,7.417,7.609v35.735C334.385,393.405,331.014,396.583,326.969,396.583z M333.808,406.601
								c0,3.66-3.082,6.742-6.839,6.742c-3.853,0-6.935-3.082-6.935-6.742c0-3.95,3.082-7.032,6.935-7.032
								C330.725,399.569,333.808,402.651,333.808,406.601z"/>
						</g>
					</g>
				</g>
			</g>
		</g>
		<path style="fill:#FFA897;" d="M513.342,388.12c0,0-57.94-5.834-75.427-10.181c-9.822-13-26.251-3.822-25.362,4.219
			c0,0-36.361-9.598-37.664,5.366c-1.172,13.457,11.727,14.606,27.941,17.024c-2.444,3.639-0.042,34.142,12.922,38.795
			c12.964,4.653,92.927,2.186,92.927,2.186L513.342,388.12z"/>
	</g>
	<path style="fill:#FFFFFF;" d="M387.409,640.66v7.933h84.758v-7.933c0-0.926-0.071-1.833-0.138-2.742h-84.481
		C387.48,638.826,387.409,639.734,387.409,640.66z"/>
	<path style="opacity:0.2;fill:#B0B8BF;" d="M435.313,603.806h-6.054v44.787h42.908v-7.933
		C472.167,620.306,455.667,603.806,435.313,603.806z"/>
	<path style="fill:#FFFFFF;" d="M278.893,640.66v7.933h84.758v-7.933c0-0.926-0.071-1.833-0.138-2.742h-84.481
		C278.964,638.826,278.893,639.734,278.893,640.66z"/>
	<path style="opacity:0.2;fill:#B0B8BF;" d="M326.797,603.806h-6.054v44.787h42.908v-7.933
		C363.651,620.306,347.151,603.806,326.797,603.806z"/>
	<path style="fill:#785F68;" d="M431.507,100.957H324.596c-2.913,0-5.297-2.384-5.297-5.297v0c0-2.913,2.384-5.297,5.297-5.297
		h106.911c2.914,0,5.297,2.384,5.297,5.297v0C436.804,98.573,434.42,100.957,431.507,100.957z"/>
	<path style="fill:#785F68;" d="M307.5,100.957L307.5,100.957c-2.516,0-4.575-2.059-4.575-4.575V95.9
		c0-2.516,2.059-4.575,4.575-4.575l0,0c2.516,0,4.575,2.059,4.575,4.575v0.482C312.075,98.898,310.016,100.957,307.5,100.957z"/>
	<circle style="opacity:0.4;fill:#FF8289;" cx="311.112" cy="267.262" r="12.842"/>
	<circle style="opacity:0.4;fill:#FF8289;" cx="438.891" cy="267.262" r="12.842"/>
</g>
</svg>
