<svg width="859" height="822" viewBox="0 0 859 822" fill="none" xmlns="http://www.w3.org/2000/svg">
<g filter="url(#filter0_d_10_775)">
<path d="M4 173C4 77.4548 81.4547 0 177 0H682C777.545 0 855 77.4547 855 173V641C855 736.545 777.545 814 682 814H177C81.4547 814 4 736.545 4 641V173Z" fill="#FF0000"/>
<path d="M177 5H682C774.784 5 850 80.2162 850 173V641C850 733.784 774.784 809 682 809H177C84.2162 809 9 733.784 9 641V173C9.00001 80.2162 84.2162 5 177 5Z" stroke="white" stroke-width="10"/>
</g>
<path d="M431 0H683C778.545 0 856 77.4547 856 173V641C856 736.545 778.545 814 683 814H431V0Z" fill="white"/>
<circle cx="431" cy="407" r="181" fill="#FF0000"/>
<path d="M250.108 427.594C249.927 427.881 249.745 428.168 249.287 428.913C248.789 430.005 248.569 430.64 248.349 431.275C248.349 431.275 248.495 431.284 248.141 431.365C240.126 442.148 229.418 448.18 216.614 449C209.423 449.461 205.563 452.227 201.692 457.864C196.133 465.96 188.631 470.621 177.664 470.065C160.052 469.171 142.359 469.973 124.706 469.702C121.611 469.654 118.096 468.512 115.538 466.76C103.584 458.576 96.1536 446.716 92.9956 433.017C89.9125 419.643 88.7777 405.788 87.307 392.088C86.4483 384.088 86.9063 383.994 95.1467 384C133.627 384.032 172.108 384.089 210.588 384.143C213.086 384.147 215.606 384.024 218.073 384.32C219.217 384.458 221.221 385.503 221.196 386.064C220.961 391.337 224.96 390.573 228.013 391.103C243.795 393.842 253.281 405.218 251.782 419.829C251.514 422.447 250.681 425.007 250.108 427.594ZM213.968 434.699C214.419 435.111 214.839 435.838 215.326 435.886C223.457 436.698 233.851 430.596 236.955 423.268C241.112 413.455 235.216 404.274 224.704 403.999C221.626 403.919 220.386 405.042 219.787 408.126C218.106 416.776 216.019 425.347 213.968 434.699Z" fill="#FCFAFA"/>
<path d="M232.958 477.014C233.091 485.99 225.945 492.792 216.001 492.843C197.671 492.937 179.34 492.873 161.009 492.886C143.345 492.899 125.681 492.885 108.017 492.969C101.787 492.999 96.4918 490.825 92.5721 486.12C90.7158 483.892 89.8397 480.847 88 477.12C137.098 477.12 184.547 477.12 232.455 477.107C232.914 477.094 233.027 476.957 232.958 477.014Z" fill="#F9F5F4"/>
<path d="M144.222 307.995C146.628 301.459 149.92 296.196 156.9 293C156.9 294.634 157.12 295.476 156.867 296.136C153.121 305.917 154.519 315.465 158.109 324.907C159.647 328.954 161.526 332.882 162.877 336.987C166.272 347.295 163.356 357.253 155.131 363.997C153.927 364.984 152.482 365.678 150.191 367.105C150.553 364.842 150.542 363.738 150.912 362.782C154.833 352.654 153.698 342.88 149.105 333.265C145.351 325.403 141.679 317.491 144.222 307.995Z" fill="#F1F1F0"/>
<path d="M176.049 321.836C177.94 319.681 179.618 317.836 181.88 315.35C182.438 321.062 182.281 325.581 183.452 329.726C184.652 333.97 187.211 337.82 189.07 341.89C193.115 350.747 189.506 360.646 180.741 364.894C180.552 364.649 180.155 364.319 180.215 364.162C183.829 354.622 181.921 346.039 176.289 337.769C172.966 332.888 172.999 327.443 176.049 321.836Z" fill="#F5EBEC"/>
<path d="M128.252 329.97C127.181 338.199 131.222 344.362 134.234 350.881C138.409 359.916 136.58 368.324 129.146 374.565C128.325 375.255 127.263 375.635 124.722 377.034C130.598 365.365 126.356 356.471 121.996 347.288C117.912 338.686 120.178 331.289 128.037 325.536C128.144 327.142 128.224 328.338 128.252 329.97Z" fill="#F5EBEC"/>
<path d="M439.733 273C441.167 273 442.385 273 443.822 273C443.822 294.497 443.822 315.792 443.822 337.588C444.633 336.84 445.106 336.46 445.513 336.02C472.805 306.473 521.196 313.292 539.326 349.244C552.974 376.309 545.17 408.291 520.673 425.685C497.653 442.03 465.1 438.596 445.908 417.897C437.288 408.599 431.863 397.783 430.274 385.291C429.46 378.889 429.31 372.369 429.324 365.904C429.383 339.16 429.618 312.417 429.788 285.674C429.79 285.254 429.788 284.834 429.788 284.158C418.832 284.158 407.978 284.158 397 284.158C397 280.339 397 276.776 397 273C411.214 273 425.365 273 439.733 273ZM503.089 414.446C526.023 404.583 534.469 376.983 522.164 355.828C511.21 336.997 487.365 330.475 468.299 341.165C453.316 349.566 445.315 366.525 448.528 384.309C453.114 409.688 479.397 424.145 503.089 414.446Z" fill="#FFFEFE"/>
<path d="M350.724 333.467C367.423 325.167 387.274 328.656 400.386 342.076C409.014 350.907 413.633 361.54 414.945 373.664C415.059 374.722 414.96 375.803 414.96 377.127C396.852 377.127 378.773 377.127 360.59 377.127C360.59 384.561 360.59 391.742 360.59 399.109C362.91 399.109 365.253 399.109 367.788 399.109C367.788 395.568 367.788 391.996 367.788 388.29C383.352 388.29 398.73 388.29 414.317 388.29C413.522 393.769 411.811 398.781 409.307 403.497C402.768 415.813 393.101 424.54 379.19 427.771C364.486 431.187 351.392 427.412 340.494 417.295C318.733 397.094 318.487 361.844 339.859 341.243C342.99 338.225 346.981 336.081 350.724 333.467ZM378.067 344.219C373.061 343.036 368.614 344.724 365.954 348.818C363.426 352.71 363.66 358.112 366.514 361.762C369.341 365.378 374.041 366.852 378.395 365.488C382.737 364.129 385.856 359.947 386.053 355.222C386.255 350.364 383.402 346.288 378.067 344.219Z" fill="#FFFEFE"/>
<path d="M458.375 527.863C446.235 530.193 434.176 530.696 422.1 529.381C390.671 525.959 361.982 514.971 335.805 497.302C323.648 489.096 312.452 479.728 302.343 469.052C299.865 466.435 296.949 464.236 294.247 461.831C293.496 461.162 292.79 460.443 292 459.686C292.779 458.789 293.481 457.98 294.332 457C295.719 458.227 297.061 459.39 298.377 460.582C316.669 477.146 338.212 487.89 361.224 496.055C376.276 501.396 391.336 506.66 407.066 509.722C443.764 516.864 478.971 512.646 512.637 496.105C530.897 487.134 547.229 475.376 562.403 461.904C562.78 461.57 563.164 461.244 563.649 460.824C564.421 461.724 565.162 462.587 566 463.563C546.289 480.851 526.816 498.304 503.818 510.694C505.052 513.26 506.484 515.595 507.327 518.126C509.15 523.6 507.807 528.577 504.201 532.96C501.699 536.002 498.497 538.043 494.76 539.256C489.664 540.91 485.582 539.867 482.505 535.504C480.612 532.819 479.317 529.701 477.844 526.733C477.306 525.648 477.029 524.433 476.66 523.357C470.558 524.868 464.559 526.353 458.375 527.863Z" fill="#FFFDFD"/>
<path d="M713.045 427.086C713.474 427.433 713.902 427.779 714.735 428.511C716.41 429.682 717.681 430.467 718.951 431.253C721.834 433.396 724.716 435.538 727.893 438.176C728.494 439.194 728.799 439.718 729.104 440.242C729.138 442.549 729.172 444.856 729.159 447.997C729.759 451.628 730.406 454.425 731.053 457.223C731.105 457.627 731.157 458.032 731.232 459.015C731.61 460.297 731.964 461.001 732.318 461.706C732.318 461.706 732.415 462.066 732.529 462.584C733.668 464.924 734.692 466.746 735.717 468.567C735.717 468.567 735.843 468.87 736 469.299C737.225 469.752 738.293 469.777 739.361 469.802C739.361 469.802 739.479 469.694 739.823 469.506C740.997 467.559 741.827 465.8 742.657 464.041C742.909 463.469 743.162 462.896 743.759 461.788C745.298 455.187 746.491 449.122 747.685 443.058C747.748 442.649 747.811 442.239 748.079 441.278C748.979 439.34 749.675 437.955 750.37 436.569C750.37 436.569 750.729 436.383 751.184 436.219C753.198 434.815 754.757 433.577 756.316 432.338C759.525 429.871 762.733 427.404 766.522 424.604C770.985 424.769 774.868 425.265 778.75 425.761C780.592 426.583 782.435 427.404 784.76 428.522C785.804 428.984 786.367 429.15 786.931 429.316C788.814 430.518 790.697 431.72 792.932 433.211C793.284 433.5 793.596 433.732 793.596 433.732L793.97 433.629C795.968 435.149 797.966 436.668 800.404 438.607C802.213 440.104 803.582 441.182 804.952 442.26C806.1 443.48 807.249 444.7 808.73 446.383C809.976 447.738 810.89 448.629 811.804 449.521C812.351 450.316 812.898 451.112 813.727 452.375C814.675 453.616 815.34 454.39 816.006 455.164C816.006 455.164 815.98 455.192 816.02 455.521C816.947 457.122 817.835 458.395 818.723 459.668C818.831 460.008 818.938 460.348 819.195 461.254C820.576 464.614 821.807 467.408 823.038 470.203C823.098 470.639 823.159 471.076 823.31 472.156C823.944 474.604 824.488 476.409 825.032 478.213C825.099 479.258 825.165 480.302 825.242 482.151C825.298 484.739 825.344 486.521 825.39 488.304C825.39 488.304 825.097 488.678 824.57 488.984C822.051 489.369 820.059 489.514 818.066 489.517C766.965 489.577 715.864 489.602 664.763 489.686C651.094 489.709 653.781 490.188 653.458 479.109C653.627 478.383 653.797 477.658 654.157 476.363C654.376 475.229 654.405 474.664 654.433 474.099C654.586 473.683 654.74 473.267 655.138 472.284C655.782 470.181 656.18 468.646 656.579 467.11C657.74 464.498 658.901 461.885 660.418 458.763C661.476 456.881 662.179 455.508 662.881 454.135C662.881 454.135 662.971 454.16 663.226 453.998C663.96 452.944 664.441 452.053 664.921 451.162C665.889 450.087 666.856 449.012 668.264 447.546C670.172 445.525 671.64 443.895 673.107 442.265C674.252 441.344 675.396 440.423 677.005 439.264C677.801 438.872 677.97 438.611 677.979 438.246C677.979 438.246 678.022 438.237 678.283 438.202C678.735 437.909 678.927 437.651 679.118 437.394C679.118 437.394 679.57 437.181 679.985 437.038C680.722 436.765 680.887 436.527 680.895 436.18C680.895 436.18 680.968 436.199 681.231 436.165C681.69 435.874 681.886 435.617 682.082 435.359C682.239 435.287 682.397 435.215 682.974 435.006C683.708 434.742 683.855 434.51 683.835 434.17C683.835 434.17 683.943 434.183 684.265 434.146C685.341 433.482 686.096 432.855 686.852 432.228C687.055 432.149 687.259 432.069 687.907 431.864C688.649 431.648 688.777 431.448 688.733 431.138C688.733 431.138 688.88 431.136 689.278 431.092C693.435 429.382 697.193 427.717 700.951 426.052C703.898 425.83 706.844 425.607 710.338 425.769C711.605 426.463 712.325 426.775 713.045 427.086Z" fill="#FF0000"/>
<path d="M752.851 423.761C749.528 424.352 746.204 424.944 742.04 425.534C739.096 425.646 736.992 425.759 734.888 425.873C733.201 425.648 731.514 425.424 729.117 424.987C723.912 423.29 719.417 421.805 714.922 420.32C714.47 419.972 714.019 419.625 713.127 418.982C712.145 418.485 711.604 418.284 711.062 418.083C711.062 418.083 710.98 418.174 710.894 417.853C709.896 417.021 708.983 416.511 708.071 416C707.977 415.681 707.781 415.448 707.159 415.002C706.531 414.58 706.227 414.455 705.923 414.329C705.923 414.329 705.937 414.243 705.793 413.964C704.791 413.124 703.933 412.562 703.075 412C701.614 410.481 700.152 408.962 698.336 406.944C695.613 403.035 693.247 399.625 690.88 396.215C689.616 392.775 688.351 389.334 686.961 385.143C684.598 369.739 685.389 355.366 690.837 341.43C698.993 320.562 719.112 308.553 743.091 310.227C763.381 311.643 780.98 326.437 785.056 347.602C787.29 359.199 786.686 371.343 787.362 383.24C787.224 383.667 787.085 384.094 786.739 385.089C786.403 386.51 786.275 387.362 786.146 388.215C785.062 390.943 783.978 393.671 782.597 396.942C782.127 398.042 781.953 398.599 781.779 399.156C781.779 399.156 781.621 399.32 781.369 399.612C780.501 401.015 779.886 402.127 779.27 403.238C777.313 405.701 775.356 408.164 772.944 411.046C768.312 414.685 764.134 417.906 759.956 421.127C758.747 421.555 757.537 421.982 755.755 422.606C754.405 423.122 753.628 423.442 752.851 423.761ZM774.272 392.267C769.864 394.217 765.526 396.348 761.031 398.069C755.973 400.006 750.88 402.168 745.602 403.121C741.017 403.949 738.533 400.696 738.972 396.054C739.37 391.847 742.213 389.785 746.715 390.532C748.828 390.883 751.026 392.053 752.992 391.719C761.644 390.25 769.721 387.117 776.356 381.206C782.434 375.79 782.244 368.731 775.837 363.699C771.401 360.214 766.498 357.329 761.836 354.129C754.119 348.832 754.149 348.844 746.77 353.925C744.719 355.337 742.553 356.594 740.375 357.808C726.508 365.537 711.409 368.44 695.753 368.804C691.881 368.895 690.885 370.167 691.418 373.876C693.373 387.5 699.573 398.859 709.907 407.729C729.354 424.423 756.986 420.943 771.674 400.089C773.283 397.804 773.866 394.798 775.274 392.279C775.18 392.258 775.085 392.237 774.272 392.267ZM764.625 321.011C757.088 314.287 747.571 312.542 738.223 312.488C727.055 312.423 716.89 315.836 707.667 323.441C695.395 333.56 690.638 346.462 688.95 361.347C688.547 364.907 689.626 366.318 693.55 366.298C713.63 366.199 732.315 361.722 748.551 349.377C752.19 346.61 755.918 346.467 759.034 349.065C767.146 355.832 778.2 358.973 783.33 369.863C787.704 358.67 783.311 334.835 764.625 321.011Z" fill="#FF0000"/>
<path d="M796.848 332.245C797.187 333.352 797.526 334.458 797.995 336.154C798.388 337.237 798.65 337.73 798.913 338.222C798.944 338.666 798.975 339.109 799.084 340.217C800.112 342.235 801.063 343.589 802.014 344.943C804.36 347.144 806.705 349.345 809.168 352.315C809.496 358.461 809.707 363.838 809.919 369.215C809.854 370.596 809.788 371.978 809.618 374.086C809.463 376.619 809.413 378.425 809.363 380.232C807.427 382.538 805.492 384.844 802.996 387.325C801.962 387.761 801.486 388.022 801.011 388.282C796.609 388.522 792.159 388.851 791.071 382.108C791.075 376.478 790.909 371.653 791.164 366.851C791.486 360.776 792.15 354.719 792.79 349.077C793.219 350.615 793.814 351.739 793.785 352.847C793.584 360.802 793.147 368.751 793.036 376.706C793.005 378.965 793.388 381.448 794.384 383.423C794.994 384.633 797.259 385.907 798.561 385.709C803.402 384.974 806.921 380.422 806.973 375.415C807.043 368.756 806.897 362.093 807.029 355.436C807.111 351.324 805.557 348.82 801.344 348.069C798.36 347.538 797.042 345.818 796.822 342.534C796.646 339.908 795.094 337.375 794.249 335.062C793.349 337.056 792.633 338.643 791.672 339.978C790.881 338.33 790.36 336.924 789.783 335.541C780.794 313.983 760.134 300.861 735.887 301.3C712.59 301.721 692.461 315.884 684.524 337.637C683.339 340.883 682.219 344.398 682.22 347.789C682.224 360.262 682.713 372.734 683.02 385.207C680.62 388.296 677.417 388.937 673.265 388.026C672.514 387.599 672.28 387.605 672.051 387.829C671.829 387.71 671.607 387.59 671.007 387.192C670.45 386.667 670.241 386.636 670 386.824C666.172 384.066 664.681 380.294 664.767 375.629C664.889 368.993 664.731 362.352 664.756 355.714C664.776 350.268 667.31 346.723 672.571 344.876C673.915 344.404 675.392 342.667 675.74 341.25C681.74 316.803 697.441 302.043 721.91 295.143C723.396 294.786 724.197 294.509 724.998 294.233C725.748 294.209 726.498 294.185 727.968 294.107C730.13 293.797 731.571 293.541 733.012 293.285C735.369 293.327 737.725 293.369 740.809 293.541C742.7 293.666 743.863 293.663 745.026 293.66C746.393 293.888 747.759 294.116 749.819 294.545C757.323 297.259 764.134 299.771 770.945 302.283C773.439 304.17 775.934 306.058 778.855 308.347C780.136 309.335 780.991 309.92 781.846 310.505C782.623 311.36 783.399 312.215 784.553 313.52C787.568 317.396 790.205 320.823 792.842 324.25C793.258 325.151 793.674 326.051 794.363 327.514C795.373 329.465 796.111 330.855 796.848 332.245ZM680.994 367.695C680.99 363.376 681.049 359.055 680.961 354.738C680.899 351.662 680.664 348.41 676.526 348.252C672.635 348.104 668.264 348.318 667.866 353.403C667.235 361.472 666.917 369.611 667.281 377.684C667.386 380.011 669.863 382.867 672.035 384.267C673.818 385.417 676.934 385.336 679.114 384.672C680.151 384.356 680.77 381.438 680.904 379.649C681.177 376.015 680.991 372.346 680.994 367.695Z" fill="#FF0000"/>
<path d="M653.117 479.271C653.781 490.188 651.094 489.709 664.763 489.687C715.864 489.602 766.965 489.578 818.066 489.517C820.059 489.515 822.051 489.369 824.507 489.213C823.202 489.815 821.433 491.081 819.661 491.085C769.85 491.196 720.039 491.178 670.227 491.182C667.229 491.183 664.23 491.174 661.231 491.189C652.374 491.234 650.434 491.167 653.117 479.271Z" fill="#E5DEDE"/>
<path d="M747.342 443.215C746.491 449.123 745.298 455.187 743.847 461.487C744.726 455.606 745.862 449.489 747.342 443.215Z" fill="#CCC0C0"/>
<path d="M700.711 425.842C697.193 427.717 693.435 429.382 689.318 431.03C692.797 429.218 696.634 427.425 700.711 425.842Z" fill="#CCC0C0"/>
<path d="M823.281 469.985C821.807 467.408 820.576 464.613 819.364 461.464C820.763 463.995 822.144 466.882 823.281 469.985Z" fill="#E5DEDE"/>
<path d="M731.292 456.961C730.406 454.425 729.759 451.628 729.227 448.422C730.071 450.909 730.801 453.804 731.292 456.961Z" fill="#CCC0C0"/>
<path d="M735.058 426.166C736.992 425.759 739.096 425.645 741.635 425.663C739.789 426.016 737.508 426.238 735.058 426.166Z" fill="#E5DEDE"/>
<path d="M672.751 442.263C671.64 443.895 670.172 445.525 668.39 447.259C669.514 445.662 670.954 443.961 672.751 442.263Z" fill="#E5DEDE"/>
<path d="M825.287 477.986C824.488 476.409 823.944 474.604 823.476 472.444C824.215 473.979 824.878 475.869 825.287 477.986Z" fill="#E5DEDE"/>
<path d="M825.717 488.186C825.344 486.521 825.298 484.739 825.365 482.525C825.666 484.085 825.855 486.076 825.717 488.186Z" fill="#E5DEDE"/>
<path d="M809.698 380.123C809.413 378.425 809.463 376.619 809.711 374.492C809.949 376.119 809.991 378.066 809.698 380.123Z" fill="#F5EBEC"/>
<path d="M755.944 432.31C754.757 433.577 753.198 434.815 751.299 436.052C752.497 434.795 754.035 433.538 755.944 432.31Z" fill="#F5EBEC"/>
<path d="M742.342 464.146C741.827 465.8 740.997 467.559 739.878 469.448C740.402 467.802 741.214 466.026 742.342 464.146Z" fill="#CCC0C0"/>
<path d="M735.763 468.194C734.692 466.746 733.668 464.924 732.643 462.732C733.698 464.181 734.754 466.001 735.763 468.194Z" fill="#CCC0C0"/>
<path d="M732.796 293C731.571 293.541 730.13 293.796 728.319 293.967C729.494 293.493 731.037 293.104 732.796 293Z" fill="#F5EBEC"/>
<path d="M750.022 436.489C749.675 437.955 748.979 439.34 748.056 440.967C748.444 439.609 749.059 438.009 750.022 436.489Z" fill="#CCC0C0"/>
<path d="M801.966 344.613C801.063 343.589 800.112 342.235 799.228 340.52C800.169 341.534 801.044 342.909 801.966 344.613Z" fill="#F5EBEC"/>
<path d="M804.937 441.898C803.582 441.182 802.213 440.104 800.717 438.718C802.034 439.452 803.478 440.494 804.937 441.898Z" fill="#E5DEDE"/>
<path d="M744.916 293.362C743.863 293.663 742.7 293.666 741.247 293.472C742.24 293.204 743.523 293.134 744.916 293.362Z" fill="#F5EBEC"/>
<path d="M818.79 459.291C817.835 458.395 816.947 457.122 816.036 455.511C816.961 456.421 817.909 457.668 818.79 459.291Z" fill="#E5DEDE"/>
<path d="M718.905 430.898C717.681 430.468 716.41 429.682 714.997 428.603C716.19 429.053 717.524 429.797 718.905 430.898Z" fill="#CCC0C0"/>
<path d="M811.838 449.157C810.89 448.629 809.976 447.738 809.011 446.526C809.931 447.069 810.902 447.932 811.838 449.157Z" fill="#E5DEDE"/>
<path d="M779.655 403.215C779.886 402.127 780.501 401.015 781.389 399.724C781.12 400.76 780.58 401.976 779.655 403.215Z" fill="#F5EBEC"/>
<path d="M786.459 388.163C786.275 387.362 786.403 386.509 786.765 385.427C786.923 386.169 786.847 387.14 786.459 388.163Z" fill="#F5EBEC"/>
<path d="M753.026 424.089C753.628 423.442 754.405 423.122 755.504 422.809C754.951 423.349 754.076 423.883 753.026 424.089Z" fill="#F5EBEC"/>
<path d="M724.821 293.974C724.197 294.509 723.396 294.786 722.272 294.982C722.848 294.506 723.746 294.111 724.821 293.974Z" fill="#F5EBEC"/>
<path d="M786.949 428.971C786.367 429.15 785.804 428.984 785.101 428.55C785.353 427.756 785.744 427.229 786.135 426.702C786.413 427.343 786.69 427.984 786.949 428.971Z" fill="#F5EBEC"/>
<path d="M703.077 412.354C703.933 412.561 704.791 413.124 705.752 413.98C704.93 413.753 704.004 413.23 703.077 412.354Z" fill="#E5DEDE"/>
<path d="M708.083 416.368C708.984 416.51 709.896 417.021 710.945 417.818C710.086 417.649 709.091 417.192 708.083 416.368Z" fill="#E5DEDE"/>
<path d="M686.525 432.195C686.096 432.855 685.341 433.482 684.28 434.094C684.715 433.44 685.457 432.801 686.525 432.195Z" fill="#CCC0C0"/>
<path d="M816.018 454.809C815.34 454.39 814.675 453.616 813.974 452.528C814.636 452.961 815.333 453.708 816.018 454.809Z" fill="#E5DEDE"/>
<path d="M781.857 310.139C780.991 309.92 780.136 309.335 779.176 308.453C780.003 308.696 780.935 309.235 781.857 310.139Z" fill="#F5EBEC"/>
<path d="M738.974 469.629C738.293 469.777 737.225 469.752 736.118 469.414C736.914 469.219 737.75 469.337 738.974 469.629Z" fill="#CCC0C0"/>
<path d="M801.157 388.498C801.487 388.021 801.962 387.761 802.73 387.549C802.449 387.97 801.876 388.342 801.157 388.498Z" fill="#F5EBEC"/>
<path d="M782.1 399.144C781.953 398.598 782.127 398.041 782.538 397.306C782.658 397.796 782.54 398.464 782.1 399.144Z" fill="#F5EBEC"/>
<path d="M799.151 338.076C798.65 337.729 798.388 337.237 798.173 336.454C798.61 336.753 799 337.342 799.151 338.076Z" fill="#F5EBEC"/>
<path d="M711.058 418.383C711.604 418.284 712.145 418.485 712.84 418.94C712.346 419.024 711.7 418.854 711.058 418.383Z" fill="#E5DEDE"/>
<path d="M732.48 461.407C731.964 461.002 731.609 460.297 731.344 459.301C731.836 459.709 732.239 460.409 732.48 461.407Z" fill="#CCC0C0"/>
<path d="M729.31 440.059C728.799 439.718 728.494 439.194 728.173 438.361C728.61 438.66 729.063 439.268 729.31 440.059Z" fill="#CCC0C0"/>
<path d="M712.967 426.757C712.325 426.775 711.605 426.464 710.737 425.887C711.355 425.89 712.122 426.158 712.967 426.757Z" fill="#CCC0C0"/>
<path d="M678.865 437.402C678.927 437.651 678.735 437.909 678.293 438.182C678.232 437.936 678.422 437.673 678.865 437.402Z" fill="#CCC0C0"/>
<path d="M677.743 438.273C677.97 438.612 677.801 438.872 677.227 439.037C677.012 438.696 677.187 438.447 677.743 438.273Z" fill="#CCC0C0"/>
<path d="M680.68 436.195C680.887 436.527 680.722 436.765 680.172 436.873C679.992 436.535 680.165 436.321 680.68 436.195Z" fill="#CCC0C0"/>
<path d="M681.835 435.371C681.886 435.617 681.69 435.875 681.24 436.129C681.056 435.773 681.257 435.525 681.835 435.371Z" fill="#CCC0C0"/>
<path d="M706.033 414.554C706.227 414.455 706.531 414.58 706.932 414.943C706.734 415.046 706.438 414.912 706.033 414.554Z" fill="#E5DEDE"/>
<path d="M683.633 434.187C683.855 434.51 683.708 434.742 683.175 434.841C682.996 434.516 683.154 434.313 683.633 434.187Z" fill="#CCC0C0"/>
<path d="M793.89 433.493C793.97 433.63 793.596 433.732 793.596 433.732C793.596 433.732 793.284 433.5 793.261 433.307C793.462 433.117 793.653 433.198 793.89 433.493Z" fill="#E5DEDE"/>
<path d="M688.568 431.135C688.777 431.448 688.649 431.649 688.171 431.67C688.028 431.355 688.166 431.199 688.568 431.135Z" fill="#CCC0C0"/>
<path d="M764.946 321.169C783.311 334.834 787.704 358.67 783.33 369.862C778.2 358.973 767.146 355.832 759.034 349.065C755.919 346.466 752.19 346.609 748.551 349.376C732.315 361.721 713.63 366.198 693.55 366.298C689.626 366.317 688.547 364.907 688.95 361.347C690.639 346.462 695.396 333.56 707.667 323.441C716.89 315.835 727.055 312.422 738.223 312.487C747.571 312.542 757.088 314.287 764.946 321.169Z" fill="#FF0000"/>
<path d="M774.975 392.193C775.085 392.237 775.18 392.258 775.1 392.203C774.925 392.126 774.959 392.171 774.975 392.193Z" fill="#FBF9F9"/>
<path d="M793.017 344.174C792.655 343.088 792.293 342.003 791.924 340.573C792.633 338.642 793.349 337.056 794.249 335.062C795.094 337.375 796.646 339.908 796.822 342.534C797.042 345.817 798.36 347.538 801.344 348.069C805.557 348.819 807.111 351.324 807.029 355.436C806.897 362.093 807.043 368.755 806.973 375.415C806.921 380.422 803.402 384.974 798.561 385.709C797.259 385.906 794.995 384.633 794.384 383.423C793.388 381.447 793.005 378.965 793.036 376.705C793.147 368.751 793.584 360.801 793.785 352.847C793.814 351.739 793.219 350.615 792.79 349.076C792.667 348.654 792.64 348.385 792.938 348.244C793.328 348.012 793.515 347.887 793.497 347.835C793.417 347.607 793.277 347.401 793.159 347.188C793.134 346.744 793.109 346.3 793.279 345.412C793.321 344.703 793.169 344.438 793.017 344.174Z" fill="#FF0000"/>
<path d="M680.994 368.193C680.991 372.346 681.177 376.014 680.904 379.649C680.77 381.438 680.151 384.355 679.114 384.671C676.934 385.336 673.818 385.417 672.035 384.267C669.863 382.866 667.386 380.011 667.281 377.684C666.917 369.611 667.235 361.472 667.866 353.403C668.264 348.318 672.635 348.104 676.526 348.252C680.664 348.41 680.899 351.661 680.961 354.738C681.049 359.055 680.99 363.375 680.994 368.193Z" fill="#FF0000"/>
<path d="M793.005 347.424C793.277 347.402 793.417 347.608 793.497 347.835C793.515 347.887 793.328 348.012 793.046 348.164C792.855 348.036 792.853 347.848 793.005 347.424Z" fill="#FF0000"/>
<defs>
<filter id="filter0_d_10_775" x="0" y="0" width="859" height="822" filterUnits="userSpaceOnUse" color-interpolation-filters="sRGB">
<feFlood flood-opacity="0" result="BackgroundImageFix"/>
<feColorMatrix in="SourceAlpha" type="matrix" values="0 0 0 0 0 0 0 0 0 0 0 0 0 0 0 0 0 0 127 0" result="hardAlpha"/>
<feOffset dy="4"/>
<feGaussianBlur stdDeviation="2"/>
<feComposite in2="hardAlpha" operator="out"/>
<feColorMatrix type="matrix" values="0 0 0 0 0 0 0 0 0 0 0 0 0 0 0 0 0 0 0.25 0"/>
<feBlend mode="normal" in2="BackgroundImageFix" result="effect1_dropShadow_10_775"/>
<feBlend mode="normal" in="SourceGraphic" in2="effect1_dropShadow_10_775" result="shape"/>
</filter>
</defs>
</svg>
