<svg width="912" height="889" viewBox="0 0 912 889" fill="none" xmlns="http://www.w3.org/2000/svg">
<path d="M491.678 0C496.432 0 500.47 0 505.235 0C505.235 71.7457 505.235 142.814 505.235 215.557C507.925 213.06 509.493 211.794 510.841 210.326C601.328 111.714 761.765 134.472 821.872 254.459C867.121 344.786 841.247 451.522 760.03 509.573C683.709 564.125 575.781 552.663 512.152 483.582C483.572 452.552 465.585 416.453 460.318 374.761C457.618 353.395 457.123 331.636 457.17 310.059C457.362 220.804 458.142 131.552 458.705 42.2982C458.714 40.8972 458.706 39.4961 458.706 37.2375C422.382 37.2375 386.398 37.2375 350 37.2375C350 24.4935 350 12.6036 350 0C397.127 0 444.043 0 491.678 0ZM701.732 472.064C777.768 439.149 805.77 347.036 764.973 276.432C728.658 213.586 649.6 191.818 586.386 227.497C536.711 255.533 510.186 312.134 520.839 371.485C536.043 456.187 623.18 504.434 701.732 472.064Z" fill="#FFFEFE"/>
<path d="M196.395 200.92C251.631 173.199 317.293 184.853 360.66 229.673C389.201 259.17 404.479 294.685 408.818 335.179C409.196 338.712 408.868 342.321 408.868 346.743C348.972 346.743 289.173 346.743 229.029 346.743C229.029 371.572 229.029 395.557 229.029 420.162C236.703 420.162 244.454 420.162 252.837 420.162C252.837 408.337 252.837 396.407 252.837 384.028C304.318 384.028 355.183 384.028 406.741 384.028C404.112 402.329 398.451 419.067 390.168 434.822C368.541 475.956 336.565 505.103 290.55 515.897C241.915 527.305 198.605 514.697 162.556 480.905C90.5793 413.435 89.7645 295.697 160.457 226.891C170.814 216.811 184.016 209.65 196.395 200.92ZM286.838 236.833C270.277 232.88 255.568 238.519 246.772 252.194C238.41 265.193 239.182 283.234 248.622 295.424C257.974 307.501 273.521 312.425 287.923 307.871C302.285 303.329 312.602 289.363 313.251 273.582C313.919 257.355 304.485 243.741 286.838 236.833Z" fill="#FFFEFE"/>
<path d="M553.775 848.641C513.366 856.387 473.229 858.063 433.035 853.69C328.422 842.311 232.932 805.772 145.803 747.015C105.341 719.728 68.0732 688.578 34.4256 653.075C26.178 644.373 16.4723 637.062 7.47889 629.064C4.97845 626.841 2.62815 624.447 0 621.932C2.59301 618.948 4.9281 616.26 7.7611 613C12.3797 617.082 16.8458 620.949 21.2259 624.911C82.1093 679.992 153.816 715.719 230.409 742.869C280.51 760.629 330.636 778.134 382.995 788.315C505.14 812.066 622.328 798.041 734.383 743.037C795.16 713.204 849.52 674.105 900.028 629.307C901.282 628.195 902.561 627.113 904.174 625.718C906.745 628.71 909.211 631.58 912 634.826C846.392 692.313 781.577 750.348 705.03 791.547C709.137 800.083 713.904 807.845 716.71 816.264C722.776 834.465 718.306 851.014 706.305 865.589C697.975 875.705 687.318 882.493 674.88 886.526C657.917 892.028 644.33 888.559 634.089 874.049C627.788 865.123 623.478 854.753 618.575 844.882C616.784 841.275 615.862 837.234 614.635 833.658C594.326 838.681 574.357 843.62 553.775 848.641Z" fill="#FFFDFD"/>
</svg>
