<svg width="142" height="142" viewBox="0 0 142 142" fill="none" xmlns="http://www.w3.org/2000/svg">
<circle cx="71" cy="71" r="71" fill="#FA003F"/>
<ellipse cx="54.5" cy="60.5" rx="12.5" ry="13.5" fill="white"/>
<rect x="52" y="60" width="15" height="3" fill="#E12034"/>
<path d="M52 60H54V62.4V66H52V63V60Z" fill="#E12034"/>
<circle cx="56" cy="54" r="3" fill="#E12034"/>
<path d="M103 60C103 68.8366 95.8366 76 87 76C78.1634 76 71 68.8366 71 60C71 51.1634 78.1634 44 87 44C95.8366 44 103 51.1634 103 60Z" fill="white"/>
<path d="M71.1172 32H74.9067V62C74.9067 62 71.5909 62 71.1172 62C70.6435 62 71.1172 32 71.1172 32Z" fill="white"/>
<circle cx="87" cy="60" r="11" fill="#E12034"/>
<rect x="62" y="32" width="12" height="3" fill="white"/>
<path fill-rule="evenodd" clip-rule="evenodd" d="M36.3269 84.6034C36.3303 84.6068 36.3342 84.6106 36.3384 84.6149L36.3269 84.6034ZM38.1428 87.5894C38.1175 87.5599 38.0973 87.536 38.0824 87.5183C38.0973 87.536 38.119 87.5616 38.1428 87.5894ZM35.69 85.3802C35.6718 85.3623 35.6563 85.3468 35.6433 85.3337Z" fill="white"/>
<path d="M44.3254 92.1527C47.7055 94.966 52.5266 98.3208 58.4945 100.722C64.6246 103.188 71.9597 104.648 80.1879 103.493C84.957 102.823 90.0367 101.271 95.3662 98.5172C81.4953 104.337 68.6817 102.902 58.5078 99.2845C52.8823 97.284 48.0669 94.6186 44.3254 92.1527Z" fill="white"/>
<path fill-rule="evenodd" clip-rule="evenodd" d="M111.188 88.7651C110.112 89.6535 109.035 90.4879 107.964 91.2768C98.0804 99.4325 88.7607 103.299 80.3272 104.483C71.8951 105.667 64.3829 104.168 58.1214 101.649C51.8628 99.1311 46.8493 95.5921 43.4024 92.686C41.6783 91.2324 40.3437 89.9346 39.4387 88.999C38.9863 88.5313 38.6405 88.1535 38.4075 87.8919C38.2912 87.7613 38.2025 87.659 38.1428 87.5894C38.1175 87.5599 38.0973 87.536 38.0824 87.5183C37.7706 87.2569 37.4836 87.0105 37.2284 86.7877C36.698 86.3247 36.2906 85.9506 36.0158 85.6918C35.8786 85.5626 35.7736 85.4617 35.703 85.3929C35.6792 85.3697 35.6593 85.3498 35.6433 85.3337C35.6359 85.3263 35.6293 85.3197 35.6236 85.314C35.8417 85.2943 35.7443 85.2945 35.6659 85.2947C35.633 85.2948 35.6034 85.2949 35.602 85.2935C35.602 85.2935 35.5945 85.2852 35.949 84.933L36.3035 84.5808L36.3269 84.6034C36.3303 84.6068 36.3342 84.6106 36.3384 84.6149C36.3543 84.6306 36.3755 84.6517 36.4017 84.6772C36.4683 84.7421 36.5686 84.8388 36.7013 84.9637C36.9676 85.2145 37.3655 85.5797 37.8858 86.0339C38.9269 86.9426 40.46 88.2074 42.4229 89.6251C46.3506 92.4618 51.9906 95.9059 58.8434 98.3428C72.5265 103.209 91.065 104.072 110.551 87.9928L111.188 88.7651ZM44.3254 92.1527C47.7055 94.966 52.5266 98.3208 58.4945 100.722C64.6246 103.188 71.9597 104.648 80.1879 103.493C84.957 102.823 90.0367 101.271 95.3662 98.5172C81.4953 104.337 68.6817 102.902 58.5078 99.2845C52.8823 97.284 48.0669 94.6186 44.3254 92.1527Z" fill="white"/>
<path d="M95.2907 103.016C95.8082 105.373 93.9689 107.78 91.1824 108.392C88.3959 109.003 87.0132 105.461 86.4956 103.104C85.9781 100.746 87.4878 100.52 90.2743 99.9085C93.0607 99.2967 94.7732 100.659 95.2907 103.016Z" fill="white"/>
</svg>
